
<svg version="1.1" id="Layer_1" xmlns="http://www.w3.org/2000/svg" x="0px" y="0px"
	 viewBox="0 0 200.03 332.58">


	<path class="st0" d="M190.03,90"/>
	<path d="M174.95,0h-22.42h-2.5h-30v3.75l-3.75,3.75v5l3.75,3.75V20h30h2.5h22.42c2.8,0,5.08,2.28,5.08,5.08v23.67V50v30h20V50
		v-1.25V25.08C200.03,11.25,188.78,0,174.95,0z"/>
	<polygon points="72.53,20 117.53,20 117.53,16.25 113.78,12.5 113.78,7.5 117.53,3.75 117.53,0 72.53,0 72.53,3.75 68.78,7.5 
		68.78,12.5 72.53,16.25 	"/>
	<polygon points="200.03,82.5 200.03,87.5 197.53,92.5 197.53,117.5 200.03,122.5 200.03,127.5 180.03,127.5 180.03,82.5 	"/>
	<polygon points="32.53,20 67.53,20 67.53,16.25 63.78,12.5 63.78,7.5 67.53,3.75 67.53,0 32.53,0 32.53,3.75 28.78,7.5 28.78,12.5 
		32.53,16.25 	"/>
	<polygon points="200.03,167.5 180.03,167.5 180.03,162.5 185.03,157.5 185.03,142.5 180.03,137.5 180.03,132.5 200.03,132.5 	"/>
	<polygon points="0.03,20 25.03,20 25.03,16.25 21.29,12.87 21.28,7.5 25.03,3.75 25.03,0 0,0 	"/>
	<polygon points="180.03,175 180.03,180 200.03,200 200.03,175 	"/>
	<polygon points="27.53,20 30.03,20 30.03,16.25 26.28,12.5 26.28,7.5 30.03,3.75 30.03,0 27.53,0 27.53,3.75 23.78,7.5 23.78,12.5 
		27.53,16.25 	"/>

<polygon points="180.03,326.25 183.78,318.75 183.78,218.75 193.78,208.83 193.78,201.29 180.03,187.5 "/>
<path d="M190.03,240"/>
<polygon points="191.28,253.75 187.53,260 187.53,220 191.28,216.25 "/>

</svg>
