<?xml version="1.0" encoding="utf-8"?>
<!-- Generator: Adobe Illustrator 24.1.1, SVG Export Plug-In . SVG Version: 6.00 Build 0)  -->
<svg version="1.1" id="Layer_1" xmlns="http://www.w3.org/2000/svg" xmlns:xlink="http://www.w3.org/1999/xlink" x="0px" y="0px"
	 viewBox="0 0 198.75 200" style="enable-background:new 0 0 198.75 200;" xml:space="preserve">
<style type="text/css">
	.st0{fill:none;stroke:#000000;stroke-width:20;stroke-miterlimit:10;}
</style>
<g>
	<path class="st0" d="M188.75,90"/>
	<path d="M173.67,0h-22.42h-2.5h-30v20h30h2.5h22.42c2.8,0,5.08,2.28,5.08,5.08v23.67V50v30h20V50v-1.25V25.08
		C198.75,11.25,187.5,0,173.67,0z"/>
	<rect x="71.25" width="45" height="20"/>
	<rect x="166.25" y="95" transform="matrix(6.123234e-17 -1 1 6.123234e-17 83.75 293.75)" width="45" height="20"/>
	<rect x="31.25" width="35" height="20"/>
	<rect x="178.75" y="132.5" width="20" height="35"/>
	<rect width="23.75" height="20"/>
	<polygon points="178.75,175 178.75,180 198.75,200 198.75,175 	"/>
</g>
</svg>
