
<svg version="1.1" id="Layer_1" xmlns="http://www.w3.org/2000/svg" xmlns:xlink="http://www.w3.org/1999/xlink" x="0px" y="0px"
	 viewBox="0 0 135 25" style="enable-background:new 0 0 135 25;" xml:space="preserve">
<style type="text/css">
	.st5{fill:#1877F2;}
	.st6{fill:#FFFFFF;}
</style>
<g>
	<g>
		<path class="st5" d="M134.9,12.5c0-6.9-5.6-12.5-12.5-12.5s-12.5,5.6-12.5,12.5c0,6.2,4.6,11.4,10.6,12.3v-8.7h-3.2v-3.6h3.2V9.7
			c0-3.1,1.9-4.9,4.7-4.9c1.4,0,2.8,0.3,2.8,0.3v3h-1.6c-1.6,0-2,1-2,2v2.3h3.5l-0.6,3.6h-2.9v8.7C130.3,23.9,134.9,18.7,134.9,12.5
			z"/>
		<path class="st6" d="M127.2,16.1l0.6-3.6h-3.5v-2.3c0-1,0.5-2,2-2h1.6V5.1c0,0-1.4-0.3-2.8-0.3c-2.9,0-4.7,1.7-4.7,4.9v2.8h-3.2
			v3.6h3.2v8.7c0.6,0.1,1.3,0.2,1.9,0.2s1.3-0.1,1.9-0.2v-8.7H127.2z"/>
	</g>
	<g>
		<g>
			<path class="st5" d="M2.2,20H0.1V5h10.2v1.8H2.2v5.2h7v1.8h-7V20z"/>
			<path class="st5" d="M14.9,6.1c0,0.4-0.1,0.7-0.4,0.9c-0.2,0.2-0.6,0.3-0.9,0.3c-0.4,0-0.7-0.1-0.9-0.3c-0.2-0.2-0.4-0.5-0.4-0.9
				s0.1-0.7,0.4-0.9C13,5,13.3,4.8,13.7,4.8c0.4,0,0.7,0.1,0.9,0.3C14.8,5.4,14.9,5.7,14.9,6.1z M14.7,20h-2V9.3h2V20z"/>
			<path class="st5" d="M27.6,20h-2v-6.2c0-0.9-0.2-1.6-0.7-2.2c-0.5-0.5-1.1-0.8-1.9-0.8c-1,0-1.9,0.3-2.5,1
				c-0.6,0.7-0.9,1.5-0.9,2.5V20h-2V9.3h2l0,1.6c0.4-0.6,1-1,1.6-1.4S22.6,9,23.5,9c1.3,0,2.3,0.4,3.1,1.2c0.7,0.8,1.1,1.9,1.1,3.3
				L27.6,20L27.6,20z"/>
			<path class="st5" d="M41,20h-2l0-1.6c-0.4,0.6-1,1-1.7,1.4c-0.7,0.3-1.5,0.5-2.3,0.5c-1,0-1.9-0.2-2.7-0.7
				c-0.8-0.5-1.4-1.1-1.9-2s-0.7-1.8-0.7-2.9c0-1.1,0.2-2,0.7-2.9c0.5-0.8,1.1-1.5,1.9-2C33.1,9.3,34,9,35,9c0.8,0,1.6,0.2,2.3,0.5
				c0.7,0.3,1.3,0.8,1.7,1.3V4l2-0.2V20z M35.4,18.5c0.7,0,1.3-0.2,1.8-0.5c0.5-0.3,1-0.8,1.3-1.4c0.3-0.6,0.5-1.2,0.5-2
				s-0.2-1.4-0.5-2c-0.3-0.6-0.7-1-1.3-1.4c-0.5-0.3-1.1-0.5-1.8-0.5s-1.3,0.2-1.8,0.5c-0.5,0.3-1,0.8-1.3,1.4
				c-0.3,0.6-0.5,1.2-0.5,2s0.2,1.4,0.5,2c0.3,0.6,0.7,1,1.3,1.4C34.1,18.3,34.7,18.5,35.4,18.5z"/>
			<path class="st5" d="M58.6,20h-2l0-1.6c-0.4,0.6-1,1-1.6,1.4c-0.7,0.3-1.4,0.5-2.2,0.5c-1.3,0-2.3-0.4-3-1.2
				c-0.7-0.8-1.1-1.9-1.1-3.3V9.3h2v6.2c0,0.9,0.2,1.6,0.7,2.2c0.5,0.5,1.1,0.8,1.9,0.8c1,0,1.8-0.3,2.4-1c0.6-0.7,0.9-1.5,0.9-2.5
				V9.3h2L58.6,20L58.6,20z"/>
			<path class="st5" d="M60.8,18.9l0.8-1.5c0.6,0.4,1.2,0.6,1.9,0.8c0.7,0.2,1.3,0.3,2,0.3c0.8,0,1.4-0.1,1.7-0.3
				c0.4-0.2,0.5-0.6,0.5-1c0-0.5-0.2-0.8-0.7-1C66.7,16,66,15.7,65,15.5c-0.7-0.2-1.3-0.4-1.9-0.6c-0.6-0.2-1.1-0.6-1.5-1
				s-0.6-1-0.6-1.7c0-0.7,0.2-1.3,0.5-1.7c0.4-0.5,0.8-0.8,1.5-1.1C63.7,9.1,64.3,9,65.1,9c0.8,0,1.6,0.1,2.4,0.4s1.5,0.6,2,0.9
				l-0.8,1.5c-0.5-0.3-1.1-0.6-1.7-0.8c-0.6-0.2-1.2-0.3-1.8-0.3s-1.1,0.1-1.5,0.3c-0.4,0.2-0.6,0.6-0.6,1c0,0.5,0.2,0.8,0.7,1
				c0.5,0.2,1.2,0.4,2.1,0.6c0.7,0.2,1.4,0.4,2,0.6c0.6,0.2,1.1,0.6,1.4,1c0.4,0.4,0.5,1,0.5,1.7c0,1-0.4,1.8-1.1,2.4
				s-1.8,0.8-3.1,0.8c-1,0-1.9-0.1-2.7-0.4C62,19.6,61.3,19.3,60.8,18.9z"/>
			<path class="st5" d="M81.9,20.3c-1.1,0-2.1-0.2-2.9-0.7c-0.8-0.5-1.5-1.1-2-2c-0.5-0.8-0.7-1.8-0.7-2.9s0.2-2.1,0.7-2.9
				c0.5-0.8,1.1-1.5,2-2C79.8,9.3,80.8,9,81.9,9C83,9,84,9.3,84.9,9.8c0.8,0.5,1.5,1.1,2,2c0.5,0.8,0.7,1.8,0.7,2.9
				s-0.2,2.1-0.7,2.9c-0.5,0.8-1.1,1.5-2,2C84,20,83,20.3,81.9,20.3z M81.9,18.5c0.7,0,1.3-0.2,1.8-0.5c0.5-0.3,1-0.8,1.3-1.4
				c0.3-0.6,0.5-1.2,0.5-2s-0.2-1.4-0.5-2c-0.3-0.6-0.7-1-1.3-1.4c-0.5-0.3-1.1-0.5-1.8-0.5c-0.7,0-1.3,0.2-1.8,0.5
				c-0.5,0.3-1,0.8-1.3,1.4c-0.3,0.6-0.5,1.2-0.5,2s0.2,1.4,0.5,2c0.3,0.6,0.7,1,1.3,1.4C80.6,18.3,81.2,18.5,81.9,18.5z"/>
			<path class="st5" d="M99.9,20h-2v-6.2c0-0.9-0.2-1.6-0.7-2.2c-0.5-0.5-1.1-0.8-2-0.8c-1,0-1.9,0.3-2.5,1
				c-0.6,0.7-0.9,1.5-0.9,2.5V20h-2V9.3h1.9l0,1.6c0.4-0.6,1-1,1.6-1.4S94.9,9,95.7,9c1.3,0,2.3,0.4,3.1,1.2
				c0.7,0.8,1.1,1.9,1.1,3.3V20z"/>
		</g>
	</g>
</g>
</svg>
