<svg id="Layer_1" data-name="Layer 1" xmlns="http://www.w3.org/2000/svg" viewBox="0 0 9 9"><defs><style>.cls-1{fill:#292929;}.cls-2{fill:#1a1a1a;}.cls-3{fill:#9a9a9a;}.cls-4{fill:#6c6c6c;}.cls-5{fill:#686868;}.cls-6{fill:#4f4f4f;}.cls-7{fill:#494949;}.cls-8{fill:#434343;}.cls-9{fill:#3d3d3d;}.cls-10{fill:#3a3a3a;}.cls-11{fill:#333;}.cls-12{fill:#222;}.cls-13{fill:#2b2b2b;}.cls-14{fill:#262626;}.cls-15{fill:#232323;}.cls-16{fill:#1e1e1e;}.cls-17{fill:#1b1b1b;}.cls-18{fill:#121212;}.cls-19{fill:#9f9f9f;}.cls-20{fill:#717171;}.cls-21{fill:#6d6d6d;}.cls-22{fill:#929292;}.cls-23{fill:#646464;}.cls-24{fill:#606060;}.cls-25{fill:#212121;}.cls-26{fill:#353535;}.cls-27{fill:#282828;}.cls-28{fill:#202020;}.cls-29{fill:#1f1f1f;}.cls-30{fill:#0d0d0d;}</style></defs><rect class="cls-1" width="1" height="1"/><rect class="cls-2" x="1" width="1" height="1"/><rect class="cls-2" x="2" width="1" height="1"/><rect class="cls-2" x="3" width="1" height="1"/><rect class="cls-2" x="4" width="1" height="1"/><rect class="cls-2" x="5" width="1" height="1"/><rect class="cls-2" x="6" width="1" height="1"/><rect class="cls-2" x="7" width="1" height="1"/><rect class="cls-1" x="8" width="1" height="1"/><rect class="cls-3" y="1" width="1" height="1"/><rect class="cls-4" x="1" y="1" width="1" height="1"/><rect class="cls-5" x="2" y="1" width="1" height="1"/><rect class="cls-6" x="3" y="1" width="1" height="1"/><rect class="cls-7" x="4" y="1" width="1" height="1"/><rect class="cls-8" x="5" y="1" width="1" height="1"/><rect class="cls-9" x="6" y="1" width="1" height="1"/><rect class="cls-10" x="7" y="1" width="1" height="1"/><rect class="cls-11" x="8" y="1" width="1" height="1"/><rect class="cls-12" y="2" width="1" height="1"/><rect class="cls-9" x="1" y="2" width="1" height="1"/><rect class="cls-13" x="2" y="2" width="1" height="1"/><rect class="cls-14" x="3" y="2" width="1" height="1"/><rect class="cls-15" x="4" y="2" width="1" height="1"/><rect class="cls-16" x="5" y="2" width="1" height="1"/><rect class="cls-17" x="6" y="2" width="1" height="1"/><rect class="cls-18" x="7" y="2" width="1" height="1"/><rect class="cls-18" x="8" y="2" width="1" height="1"/><rect class="cls-19" y="3" width="1" height="1"/><rect class="cls-20" x="1" y="3" width="1" height="1"/><rect class="cls-21" x="2" y="3" width="1" height="1"/><rect class="cls-6" x="3" y="3" width="1" height="1"/><rect class="cls-7" x="4" y="3" width="1" height="1"/><rect class="cls-8" x="5" y="3" width="1" height="1"/><rect class="cls-9" x="6" y="3" width="1" height="1"/><rect class="cls-10" x="7" y="3" width="1" height="1"/><rect class="cls-11" x="8" y="3" width="1" height="1"/><rect class="cls-12" y="4" width="1" height="1"/><rect class="cls-9" x="1" y="4" width="1" height="1"/><rect class="cls-13" x="2" y="4" width="1" height="1"/><rect class="cls-14" x="3" y="4" width="1" height="1"/><rect class="cls-15" x="4" y="4" width="1" height="1"/><rect class="cls-16" x="5" y="4" width="1" height="1"/><rect class="cls-17" x="6" y="4" width="1" height="1"/><rect class="cls-18" x="7" y="4" width="1" height="1"/><rect class="cls-18" x="8" y="4" width="1" height="1"/><rect class="cls-3" y="5" width="1" height="1"/><rect class="cls-4" x="1" y="5" width="1" height="1"/><rect class="cls-5" x="2" y="5" width="1" height="1"/><rect class="cls-6" x="3" y="5" width="1" height="1"/><rect class="cls-7" x="4" y="5" width="1" height="1"/><rect class="cls-8" x="5" y="5" width="1" height="1"/><rect class="cls-9" x="6" y="5" width="1" height="1"/><rect class="cls-10" x="7" y="5" width="1" height="1"/><rect class="cls-11" x="8" y="5" width="1" height="1"/><rect class="cls-12" y="6" width="1" height="1"/><rect class="cls-9" x="1" y="6" width="1" height="1"/><rect class="cls-13" x="2" y="6" width="1" height="1"/><rect class="cls-14" x="3" y="6" width="1" height="1"/><rect class="cls-15" x="4" y="6" width="1" height="1"/><rect class="cls-16" x="5" y="6" width="1" height="1"/><rect class="cls-17" x="6" y="6" width="1" height="1"/><rect class="cls-18" x="7" y="6" width="1" height="1"/><rect class="cls-18" x="8" y="6" width="1" height="1"/><rect class="cls-22" y="7" width="1" height="1"/><rect class="cls-23" x="1" y="7" width="1" height="1"/><rect class="cls-24" x="2" y="7" width="1" height="1"/><rect class="cls-6" x="3" y="7" width="1" height="1"/><rect class="cls-7" x="4" y="7" width="1" height="1"/><rect class="cls-8" x="5" y="7" width="1" height="1"/><rect class="cls-9" x="6" y="7" width="1" height="1"/><rect class="cls-10" x="7" y="7" width="1" height="1"/><rect class="cls-11" x="8" y="7" width="1" height="1"/><rect class="cls-25" y="8" width="1" height="1"/><rect class="cls-26" x="1" y="8" width="1" height="1"/><rect class="cls-27" x="2" y="8" width="1" height="1"/><rect class="cls-27" x="3" y="8" width="1" height="1"/><rect class="cls-12" x="4" y="8" width="1" height="1"/><rect class="cls-25" x="5" y="8" width="1" height="1"/><rect class="cls-28" x="6" y="8" width="1" height="1"/><rect class="cls-29" x="7" y="8" width="1" height="1"/><rect class="cls-30" x="8" y="8" width="1" height="1"/></svg>