<svg id="Layer_1" data-name="Layer 1" xmlns="http://www.w3.org/2000/svg" viewBox="0 0 9 9"><defs><style>.cls-1{fill:#6c6c6c;}.cls-2{fill:#3e3e3e;}.cls-3{fill:#3a3a3a;}.cls-4{fill:#353535;}.cls-5{fill:#2f2f2f;}.cls-6{fill:#292929;}.cls-7{fill:#232323;}.cls-8{fill:#202020;}.cls-9{fill:#080808;}.cls-10{fill:#111;}.cls-11{fill:#0c0c0c;}.cls-12{fill:#090909;}.cls-13{fill:#040404;}.cls-14{fill:#010101;}.cls-15{fill:#020202;}</style></defs><rect width="1" height="1"/><rect x="1" width="1" height="1"/><rect x="2" width="1" height="1"/><rect x="3" width="1" height="1"/><rect x="4" width="1" height="1"/><rect x="5" width="1" height="1"/><rect x="6" width="1" height="1"/><rect x="7" width="1" height="1"/><rect x="8" width="1" height="1"/><rect class="cls-1" y="1" width="1" height="1"/><rect class="cls-2" x="1" y="1" width="1" height="1"/><rect class="cls-3" x="2" y="1" width="1" height="1"/><rect class="cls-4" x="3" y="1" width="1" height="1"/><rect class="cls-5" x="4" y="1" width="1" height="1"/><rect class="cls-6" x="5" y="1" width="1" height="1"/><rect class="cls-7" x="6" y="1" width="1" height="1"/><rect class="cls-8" x="7" y="1" width="1" height="1"/><rect x="8" y="1" width="1" height="1"/><rect class="cls-9" y="2" width="1" height="1"/><rect class="cls-7" x="1" y="2" width="1" height="1"/><rect class="cls-10" x="2" y="2" width="1" height="1"/><rect class="cls-11" x="3" y="2" width="1" height="1"/><rect class="cls-12" x="4" y="2" width="1" height="1"/><rect class="cls-13" x="5" y="2" width="1" height="1"/><rect class="cls-14" x="6" y="2" width="1" height="1"/><rect x="7" y="2" width="1" height="1"/><rect x="8" y="2" width="1" height="1"/><rect class="cls-1" y="3" width="1" height="1"/><rect class="cls-2" x="1" y="3" width="1" height="1"/><rect class="cls-3" x="2" y="3" width="1" height="1"/><rect class="cls-4" x="3" y="3" width="1" height="1"/><rect class="cls-5" x="4" y="3" width="1" height="1"/><rect class="cls-6" x="5" y="3" width="1" height="1"/><rect class="cls-7" x="6" y="3" width="1" height="1"/><rect class="cls-8" x="7" y="3" width="1" height="1"/><rect x="8" y="3" width="1" height="1"/><rect class="cls-9" y="4" width="1" height="1"/><rect class="cls-7" x="1" y="4" width="1" height="1"/><rect class="cls-10" x="2" y="4" width="1" height="1"/><rect class="cls-11" x="3" y="4" width="1" height="1"/><rect class="cls-12" x="4" y="4" width="1" height="1"/><rect class="cls-13" x="5" y="4" width="1" height="1"/><rect class="cls-14" x="6" y="4" width="1" height="1"/><rect x="7" y="4" width="1" height="1"/><rect x="8" y="4" width="1" height="1"/><rect class="cls-1" y="5" width="1" height="1"/><rect class="cls-2" x="1" y="5" width="1" height="1"/><rect class="cls-3" x="2" y="5" width="1" height="1"/><rect class="cls-4" x="3" y="5" width="1" height="1"/><rect class="cls-5" x="4" y="5" width="1" height="1"/><rect class="cls-6" x="5" y="5" width="1" height="1"/><rect class="cls-7" x="6" y="5" width="1" height="1"/><rect class="cls-8" x="7" y="5" width="1" height="1"/><rect x="8" y="5" width="1" height="1"/><rect class="cls-9" y="6" width="1" height="1"/><rect class="cls-7" x="1" y="6" width="1" height="1"/><rect class="cls-10" x="2" y="6" width="1" height="1"/><rect class="cls-11" x="3" y="6" width="1" height="1"/><rect class="cls-12" x="4" y="6" width="1" height="1"/><rect class="cls-13" x="5" y="6" width="1" height="1"/><rect class="cls-14" x="6" y="6" width="1" height="1"/><rect x="7" y="6" width="1" height="1"/><rect x="8" y="6" width="1" height="1"/><rect class="cls-1" y="7" width="1" height="1"/><rect class="cls-2" x="1" y="7" width="1" height="1"/><rect class="cls-3" x="2" y="7" width="1" height="1"/><rect class="cls-4" x="3" y="7" width="1" height="1"/><rect class="cls-5" x="4" y="7" width="1" height="1"/><rect class="cls-6" x="5" y="7" width="1" height="1"/><rect class="cls-7" x="6" y="7" width="1" height="1"/><rect class="cls-8" x="7" y="7" width="1" height="1"/><rect x="8" y="7" width="1" height="1"/><rect y="8" width="1" height="1"/><rect class="cls-15" x="1" y="8" width="1" height="1"/><rect x="2" y="8" width="1" height="1"/><rect x="3" y="8" width="1" height="1"/><rect x="4" y="8" width="1" height="1"/><rect x="5" y="8" width="1" height="1"/><rect x="6" y="8" width="1" height="1"/><rect x="7" y="8" width="1" height="1"/><rect x="8" y="8" width="1" height="1"/></svg>