<svg id="Layer_1" data-name="Layer 1" xmlns="http://www.w3.org/2000/svg" viewBox="0 0 9 9"><defs><style>.cls-1{fill:#9f9f9f;}.cls-2{fill:#717171;}.cls-3{fill:#6d6d6d;}.cls-4{fill:#686868;}.cls-5{fill:#626262;}.cls-6{fill:#5c5c5c;}.cls-7{fill:#565656;}.cls-8{fill:#535353;}.cls-9{fill:#333;}.cls-10{fill:#3b3b3b;}.cls-11{fill:#444;}.cls-12{fill:#3f3f3f;}.cls-13{fill:#3c3c3c;}.cls-14{fill:#373737;}.cls-15{fill:#343434;}.cls-16{fill:#2b2b2b;}.cls-17{fill:#121212;}.cls-18{fill:#212121;}.cls-19{fill:#353535;}.cls-20{fill:#282828;}.cls-21{fill:#222;}.cls-22{fill:#202020;}.cls-23{fill:#1f1f1f;}.cls-24{fill:#0d0d0d;}</style></defs><rect width="1" height="1"/><rect x="1" width="1" height="1"/><rect x="2" width="1" height="1"/><rect x="3" width="1" height="1"/><rect x="4" width="1" height="1"/><rect x="5" width="1" height="1"/><rect x="6" width="1" height="1"/><rect x="7" width="1" height="1"/><rect x="8" width="1" height="1"/><rect class="cls-1" y="1" width="1" height="1"/><rect class="cls-2" x="1" y="1" width="1" height="1"/><rect class="cls-3" x="2" y="1" width="1" height="1"/><rect class="cls-4" x="3" y="1" width="1" height="1"/><rect class="cls-5" x="4" y="1" width="1" height="1"/><rect class="cls-6" x="5" y="1" width="1" height="1"/><rect class="cls-7" x="6" y="1" width="1" height="1"/><rect class="cls-8" x="7" y="1" width="1" height="1"/><rect class="cls-9" x="8" y="1" width="1" height="1"/><rect class="cls-10" y="2" width="1" height="1"/><rect class="cls-7" x="1" y="2" width="1" height="1"/><rect class="cls-11" x="2" y="2" width="1" height="1"/><rect class="cls-12" x="3" y="2" width="1" height="1"/><rect class="cls-13" x="4" y="2" width="1" height="1"/><rect class="cls-14" x="5" y="2" width="1" height="1"/><rect class="cls-15" x="6" y="2" width="1" height="1"/><rect class="cls-16" x="7" y="2" width="1" height="1"/><rect class="cls-17" x="8" y="2" width="1" height="1"/><rect class="cls-1" y="3" width="1" height="1"/><rect class="cls-2" x="1" y="3" width="1" height="1"/><rect class="cls-3" x="2" y="3" width="1" height="1"/><rect class="cls-4" x="3" y="3" width="1" height="1"/><rect class="cls-5" x="4" y="3" width="1" height="1"/><rect class="cls-6" x="5" y="3" width="1" height="1"/><rect class="cls-7" x="6" y="3" width="1" height="1"/><rect class="cls-8" x="7" y="3" width="1" height="1"/><rect class="cls-9" x="8" y="3" width="1" height="1"/><rect class="cls-10" y="4" width="1" height="1"/><rect class="cls-7" x="1" y="4" width="1" height="1"/><rect class="cls-11" x="2" y="4" width="1" height="1"/><rect class="cls-12" x="3" y="4" width="1" height="1"/><rect class="cls-13" x="4" y="4" width="1" height="1"/><rect class="cls-14" x="5" y="4" width="1" height="1"/><rect class="cls-15" x="6" y="4" width="1" height="1"/><rect class="cls-16" x="7" y="4" width="1" height="1"/><rect class="cls-17" x="8" y="4" width="1" height="1"/><rect class="cls-1" y="5" width="1" height="1"/><rect class="cls-2" x="1" y="5" width="1" height="1"/><rect class="cls-3" x="2" y="5" width="1" height="1"/><rect class="cls-4" x="3" y="5" width="1" height="1"/><rect class="cls-5" x="4" y="5" width="1" height="1"/><rect class="cls-6" x="5" y="5" width="1" height="1"/><rect class="cls-7" x="6" y="5" width="1" height="1"/><rect class="cls-8" x="7" y="5" width="1" height="1"/><rect class="cls-9" x="8" y="5" width="1" height="1"/><rect class="cls-10" y="6" width="1" height="1"/><rect class="cls-7" x="1" y="6" width="1" height="1"/><rect class="cls-11" x="2" y="6" width="1" height="1"/><rect class="cls-12" x="3" y="6" width="1" height="1"/><rect class="cls-13" x="4" y="6" width="1" height="1"/><rect class="cls-14" x="5" y="6" width="1" height="1"/><rect class="cls-15" x="6" y="6" width="1" height="1"/><rect class="cls-16" x="7" y="6" width="1" height="1"/><rect class="cls-17" x="8" y="6" width="1" height="1"/><rect class="cls-1" y="7" width="1" height="1"/><rect class="cls-2" x="1" y="7" width="1" height="1"/><rect class="cls-3" x="2" y="7" width="1" height="1"/><rect class="cls-4" x="3" y="7" width="1" height="1"/><rect class="cls-5" x="4" y="7" width="1" height="1"/><rect class="cls-6" x="5" y="7" width="1" height="1"/><rect class="cls-7" x="6" y="7" width="1" height="1"/><rect class="cls-8" x="7" y="7" width="1" height="1"/><rect class="cls-9" x="8" y="7" width="1" height="1"/><rect class="cls-18" y="8" width="1" height="1"/><rect class="cls-19" x="1" y="8" width="1" height="1"/><rect class="cls-20" x="2" y="8" width="1" height="1"/><rect class="cls-20" x="3" y="8" width="1" height="1"/><rect class="cls-21" x="4" y="8" width="1" height="1"/><rect class="cls-18" x="5" y="8" width="1" height="1"/><rect class="cls-22" x="6" y="8" width="1" height="1"/><rect class="cls-23" x="7" y="8" width="1" height="1"/><rect class="cls-24" x="8" y="8" width="1" height="1"/></svg>