<svg id="Layer_1" data-name="Layer 1" xmlns="http://www.w3.org/2000/svg" viewBox="0 0 85.94 124.6"><defs><style>.cls-1{fill:#87000a;}</style></defs><path class="cls-1" d="M1001.65,589.17c-5.32-4.52-9.76-14.06-17.37-13.87a22.08,22.08,0,0,0-9.67-.46,15.53,15.53,0,0,1-3.68-1.19,9.55,9.55,0,0,0-.68-2.93c3.73-.82,5.42-6.07,2.94-9.09.3-2.52,2.75-5.16,1.6-7.58,1.23-7-1-13.63-8.16-15.85-11-2.26-22.4,4.6-21.93,16.68-.2,5.1,3.15,10,3.14,14.91a14.83,14.83,0,0,1-2.18,3.18c-4.52.9-11.13.31-15.12,3.43-3.21,2.64-6.88,5.55-7.3,10-1.91,2.32-4.27,4.9-4.55,8-3.55,7.85,8.72,8.62,13.51,10.63,0,.12,0,.24,0,.38-.42,5.41.42,11.33.08,17,.56,5.18-3,9.75-2,14.33a10.67,10.67,0,0,0,.44,5.58c-1,3.41,2.16,7,4.63,8.94,7.09,12.53,24.94,12.59,37.22,9.08,8.49,1.84,16.94-14.91,15.85-22.35.1-5.55,2.69-10.34,2.21-16,.22-7.37,1.68-14.4-.86-21.7,3.4-.9,6-2,9.4-1.8C1004.63,598.53,1005.46,591.36,1001.65,589.17Z" transform="translate(-918.06 -537.77)"/></svg>