<svg id="Layer_1" data-name="Layer 1" xmlns="http://www.w3.org/2000/svg" viewBox="0 0 11 17"><defs><style>.cls-1{fill:#3d3d3d;}.cls-2{fill:#030000;}.cls-3{fill:#757271;}.cls-4{fill:#bab4b3;}.cls-5{fill:#b3b3b3;}.cls-6{fill:#040000;}.cls-7{fill:#0d0800;}.cls-8{fill:#231d14;}.cls-9{fill:#bab5b2;}.cls-10{fill:#dad3cb;}.cls-11{fill:#e2dfd8;}.cls-12{fill:#e1ddd6;}.cls-13{fill:#e1ddda;}.cls-14{fill:#e0dbd7;}.cls-15{fill:#e5e1dc;}.cls-16{fill:#e0dcd3;}.cls-17{fill:#e5e1de;}.cls-18{fill:#e4e1da;}.cls-19{fill:#faf6f4;}.cls-20{fill:#fceee5;}.cls-21{fill:#fff9f3;}.cls-22{fill:#fff6f2;}.cls-23{fill:#fff1eb;}.cls-24{fill:#fffaf6;}.cls-25{fill:#fff2e7;}.cls-26{fill:#fef0e6;}.cls-27{fill:#fffff7;}.cls-28{fill:#fff8ed;}.cls-29{fill:#fff;}.cls-30{fill:#fffffc;}.cls-31{fill:#fffffb;}.cls-32{fill:#fffff9;}.cls-33{fill:#fffcf6;}</style></defs><rect class="cls-1" x="1" width="1" height="1"/><rect x="1.99" width="1" height="1"/><rect x="2.99" width="1" height="1"/><rect x="4" width="1" height="1"/><rect x="5" width="1" height="1"/><rect x="5.97" width="1" height="1"/><rect x="6.98" width="1" height="1"/><rect class="cls-2" x="7.98" width="1" height="1"/><rect class="cls-3" x="8.99" y="0.01" width="1" height="1"/><rect class="cls-4" x="0.01" y="0.01" width="1" height="1"/><rect class="cls-5" x="9.99" y="0.01" width="1" height="1"/><rect class="cls-6" y="1.01" width="1" height="1"/><rect y="2" width="1" height="1"/><rect y="2.99" width="1" height="1"/><rect y="3.99" width="1" height="1"/><rect y="4.99" width="1" height="1"/><rect y="5.98" width="1" height="1"/><rect y="6.98" width="1" height="1"/><rect y="7.98" width="1" height="1"/><rect y="8.98" width="1" height="1"/><rect y="9.98" width="1" height="1"/><rect y="10.98" width="1" height="1"/><rect y="11.98" width="1" height="1"/><rect y="12.98" width="1" height="1"/><rect class="cls-7" y="13.99" width="1" height="1"/><rect class="cls-8" y="14.99" width="1" height="1"/><rect class="cls-9" y="16" width="1" height="1"/><rect class="cls-10" x="1" y="16" width="1" height="1"/><rect class="cls-11" x="1.99" y="16" width="1" height="1"/><rect class="cls-12" x="2.99" y="16" width="1" height="1"/><rect class="cls-13" x="3.99" y="16" width="1" height="1"/><rect class="cls-14" x="5" y="16" width="1" height="1"/><rect class="cls-15" x="5.99" y="16" width="1" height="1"/><rect class="cls-16" x="6.99" y="16" width="1" height="1"/><rect class="cls-17" x="8" y="16" width="1" height="1"/><rect class="cls-18" x="8.99" y="16" width="1" height="1"/><rect class="cls-19" x="10" y="16" width="1" height="1"/><rect class="cls-20" x="10" y="15" width="1" height="1"/><rect class="cls-21" x="10" y="14" width="1" height="1"/><rect class="cls-22" x="10" y="13" width="1" height="1"/><rect class="cls-23" x="10" y="11.99" width="1" height="1"/><rect class="cls-24" x="10" y="10.98" width="1" height="1"/><rect class="cls-25" x="10" y="9.98" width="1" height="1"/><rect class="cls-26" x="10" y="8.97" width="1" height="1"/><rect class="cls-27" x="10" y="7.97" width="1" height="1"/><rect class="cls-28" x="10" y="1.01" width="1" height="1"/><rect class="cls-29" x="10" y="2" width="1" height="1"/><rect class="cls-30" x="10" y="3" width="1" height="1"/><rect class="cls-31" x="10" y="3.99" width="1" height="1"/><rect class="cls-31" x="10" y="5" width="1" height="1"/><rect class="cls-32" x="10" y="5.99" width="1" height="1"/><rect class="cls-33" x="10" y="6.99" width="1" height="1"/></svg>