<svg id="Layer_1" data-name="Layer 1" xmlns="http://www.w3.org/2000/svg" viewBox="0 0 11 17"><defs><style>.cls-1{fill:#959391;}.cls-2{fill:#959491;}.cls-3{fill:#979491;}.cls-4{fill:#9a9994;}.cls-5{fill:#9d9b99;}.cls-6{fill:#9b9994;}.cls-7{fill:#9b9a96;}.cls-8{fill:#a8a5a0;}.cls-9{fill:#c9c6c4;}.cls-10{fill:#bcbab7;}.cls-11{fill:#e7e6e1;}.cls-12{fill:#8f8a84;}.cls-13{fill:#8d8b88;}.cls-14{fill:#8b8983;}.cls-15{fill:#8b8885;}.cls-16{fill:#89857f;}.cls-17{fill:#898681;}.cls-18{fill:#88847c;}.cls-19{fill:#87827d;}.cls-20{fill:#8c8881;}.cls-21{fill:#8a8986;}.cls-22{fill:#898781;}.cls-23{fill:#89847a;}.cls-24{fill:#8b8982;}.cls-25{fill:#98938b;}.cls-26{fill:#aea89f;}.cls-27{fill:#ada8a5;}.cls-28{fill:#b4ada5;}.cls-29{fill:#bcb9b2;}.cls-30{fill:#bbb7b0;}.cls-31{fill:#bbb7b4;}.cls-32{fill:#bab5b1;}.cls-33{fill:#bfbbb6;}.cls-34{fill:#bab6ad;}.cls-35{fill:#bfbbb8;}.cls-36{fill:#bebbb4;}.cls-37{fill:#bbb7b5;}.cls-38{fill:#dbd5cc;}.cls-39{fill:#e0dad4;}.cls-40{fill:#ddd7d3;}.cls-41{fill:#dad2cc;}.cls-42{fill:#e1dbd7;}.cls-43{fill:#dad3c8;}.cls-44{fill:#d7d1c7;}.cls-45{fill:#e3e0d8;}.cls-46{fill:#e6dfd4;}.cls-47{fill:#e8e4e3;}.cls-48{fill:#e9e3dd;}.cls-49{fill:#e8e3dc;}.cls-50{fill:#e9e4dc;}.cls-51{fill:#e6e1da;}.cls-52{fill:#e2ddd7;}</style></defs><rect class="cls-1" x="1" width="1" height="1"/><rect class="cls-2" x="1.99" width="1" height="1"/><rect class="cls-3" x="2.99" width="1" height="1"/><rect class="cls-4" x="4" width="1" height="1"/><rect class="cls-5" x="5" width="1" height="1"/><rect class="cls-6" x="5.97" width="1" height="1"/><rect class="cls-7" x="6.98" width="1" height="1"/><rect class="cls-8" x="7.98" width="1" height="1"/><rect class="cls-9" x="8.99" y="0.01" width="1" height="1"/><rect class="cls-10" x="0.01" y="0.01" width="1" height="1"/><rect class="cls-11" x="9.99" y="0.01" width="1" height="1"/><rect class="cls-12" y="1.01" width="1" height="1"/><rect class="cls-13" y="2" width="1" height="1"/><rect class="cls-14" y="2.99" width="1" height="1"/><rect class="cls-15" y="3.99" width="1" height="1"/><rect class="cls-16" y="4.99" width="1" height="1"/><rect class="cls-17" y="5.98" width="1" height="1"/><rect class="cls-18" y="6.98" width="1" height="1"/><rect class="cls-19" y="7.98" width="1" height="1"/><rect class="cls-20" y="8.98" width="1" height="1"/><rect class="cls-21" y="9.98" width="1" height="1"/><rect class="cls-22" y="10.98" width="1" height="1"/><rect class="cls-23" y="11.98" width="1" height="1"/><rect class="cls-24" y="12.98" width="1" height="1"/><rect class="cls-25" y="13.99" width="1" height="1"/><rect class="cls-26" y="14.99" width="1" height="1"/><rect class="cls-27" y="16" width="1" height="1"/><rect class="cls-28" x="1" y="16" width="1" height="1"/><rect class="cls-29" x="1.99" y="16" width="1" height="1"/><rect class="cls-30" x="2.99" y="16" width="1" height="1"/><rect class="cls-31" x="3.99" y="16" width="1" height="1"/><rect class="cls-32" x="5" y="16" width="1" height="1"/><rect class="cls-33" x="5.99" y="16" width="1" height="1"/><rect class="cls-34" x="6.99" y="16" width="1" height="1"/><rect class="cls-35" x="8" y="16" width="1" height="1"/><rect class="cls-36" x="8.99" y="16" width="1" height="1"/><rect class="cls-37" x="10" y="16" width="1" height="1"/><rect class="cls-38" x="10" y="15" width="1" height="1"/><rect class="cls-39" x="10" y="14" width="1" height="1"/><rect class="cls-40" x="10" y="13" width="1" height="1"/><rect class="cls-41" x="10" y="11.99" width="1" height="1"/><rect class="cls-42" x="10" y="10.98" width="1" height="1"/><rect class="cls-43" x="10" y="9.98" width="1" height="1"/><rect class="cls-44" x="10" y="8.97" width="1" height="1"/><rect class="cls-45" x="10" y="7.97" width="1" height="1"/><rect class="cls-46" x="10" y="1.01" width="1" height="1"/><rect class="cls-47" x="10" y="2" width="1" height="1"/><rect class="cls-48" x="10" y="3" width="1" height="1"/><rect class="cls-49" x="10" y="3.99" width="1" height="1"/><rect class="cls-50" x="10" y="5" width="1" height="1"/><rect class="cls-51" x="10" y="5.99" width="1" height="1"/><rect class="cls-52" x="10" y="6.99" width="1" height="1"/></svg>