<svg id="Layer_1" data-name="Layer 1" xmlns="http://www.w3.org/2000/svg" viewBox="0 0 11 17"><defs><style>.cls-1{fill:#010000;}.cls-2{fill:#040200;}.cls-3{fill:#020000;}.cls-4{fill:#020100;}.cls-5{fill:#0f0c07;}.cls-6{fill:#302d2b;}.cls-7{fill:#23211e;}.cls-8{fill:#4e4d48;}.cls-9{fill:#150f06;}.cls-10{fill:#140f0c;}.cls-11{fill:#1b140c;}.cls-12{fill:#232019;}.cls-13{fill:#221e17;}.cls-14{fill:#221e1b;}.cls-15{fill:#211c18;}.cls-16{fill:#26221d;}.cls-17{fill:#211d14;}.cls-18{fill:#26221f;}.cls-19{fill:#25221b;}.cls-20{fill:#221e1c;}.cls-21{fill:#423c33;}.cls-22{fill:#47413b;}.cls-23{fill:#443e3a;}.cls-24{fill:#413933;}.cls-25{fill:#48423e;}.cls-26{fill:#413a2f;}.cls-27{fill:#3e382e;}.cls-28{fill:#4a473f;}.cls-29{fill:#4d463b;}.cls-30{fill:#4f4b4a;}.cls-31{fill:#504a44;}.cls-32{fill:#4f4a43;}.cls-33{fill:#504b43;}.cls-34{fill:#4d4841;}.cls-35{fill:#49443e;}</style></defs><rect x="1" width="1" height="1"/><rect x="1.99" width="1" height="1"/><rect x="2.99" width="1" height="1"/><rect class="cls-1" x="4" width="1" height="1"/><rect class="cls-2" x="5" width="1" height="1"/><rect class="cls-3" x="5.97" width="1" height="1"/><rect class="cls-4" x="6.98" width="1" height="1"/><rect class="cls-5" x="7.98" width="1" height="1"/><rect class="cls-6" x="8.99" y="0.01" width="1" height="1"/><rect class="cls-7" x="0.01" y="0.01" width="1" height="1"/><rect class="cls-8" x="9.99" y="0.01" width="1" height="1"/><rect y="1.01" width="1" height="1"/><rect y="2" width="1" height="1"/><rect y="2.99" width="1" height="1"/><rect y="3.99" width="1" height="1"/><rect y="4.99" width="1" height="1"/><rect y="5.98" width="1" height="1"/><rect y="6.98" width="1" height="1"/><rect y="7.98" width="1" height="1"/><rect y="8.98" width="1" height="1"/><rect y="9.98" width="1" height="1"/><rect y="10.98" width="1" height="1"/><rect y="11.98" width="1" height="1"/><rect y="12.98" width="1" height="1"/><rect y="13.99" width="1" height="1"/><rect class="cls-9" y="14.99" width="1" height="1"/><rect class="cls-10" y="16" width="1" height="1"/><rect class="cls-11" x="1" y="16" width="1" height="1"/><rect class="cls-12" x="1.99" y="16" width="1" height="1"/><rect class="cls-13" x="2.99" y="16" width="1" height="1"/><rect class="cls-14" x="3.99" y="16" width="1" height="1"/><rect class="cls-15" x="5" y="16" width="1" height="1"/><rect class="cls-16" x="5.99" y="16" width="1" height="1"/><rect class="cls-17" x="6.99" y="16" width="1" height="1"/><rect class="cls-18" x="8" y="16" width="1" height="1"/><rect class="cls-19" x="8.99" y="16" width="1" height="1"/><rect class="cls-20" x="10" y="16" width="1" height="1"/><rect class="cls-21" x="10" y="15" width="1" height="1"/><rect class="cls-22" x="10" y="14" width="1" height="1"/><rect class="cls-23" x="10" y="13" width="1" height="1"/><rect class="cls-24" x="10" y="11.99" width="1" height="1"/><rect class="cls-25" x="10" y="10.98" width="1" height="1"/><rect class="cls-26" x="10" y="9.98" width="1" height="1"/><rect class="cls-27" x="10" y="8.97" width="1" height="1"/><rect class="cls-28" x="10" y="7.97" width="1" height="1"/><rect class="cls-29" x="10" y="1.01" width="1" height="1"/><rect class="cls-30" x="10" y="2" width="1" height="1"/><rect class="cls-31" x="10" y="3" width="1" height="1"/><rect class="cls-32" x="10" y="3.99" width="1" height="1"/><rect class="cls-33" x="10" y="5" width="1" height="1"/><rect class="cls-34" x="10" y="5.99" width="1" height="1"/><rect class="cls-35" x="10" y="6.99" width="1" height="1"/></svg>