<?xml version="1.0" encoding="utf-8"?>
<!-- Generator: Adobe Illustrator 24.1.1, SVG Export Plug-In . SVG Version: 6.00 Build 0)  -->
<svg version="1.1" id="Layer_1" xmlns="http://www.w3.org/2000/svg" xmlns:xlink="http://www.w3.org/1999/xlink" x="0px" y="0px"
	 viewBox="0 0 150 150" style="enable-background:new 0 0 150 150;" xml:space="preserve">
<style type="text/css">
	.st0{fill:#FFFFFF;}
</style>
<path class="st0" d="M74.9,135.4c-33.1,0-60-26.9-60-60s26.9-60,60-60c14.4,0,27.6,5.1,38,13.5c4.6,3.8,8.6,8.4,12,13.3
	c5.4,7.8,10,20.9,10,33.1c0,33-26.7,59.8-59.6,60"/>
<path class="st0" d="M118.9,76.1c0-0.2,0-0.4,0-0.7c0-24.3-19.7-44-44-44s-44,19.7-44,44c0,0.2,0,0.4,0,0.7H118.9z"/>
</svg>
