<?xml version="1.0" encoding="utf-8"?>
<!-- Generator: Adobe Illustrator 24.1.1, SVG Export Plug-In . SVG Version: 6.00 Build 0)  -->
<svg version="1.0" id="Layer_1" xmlns="http://www.w3.org/2000/svg" xmlns:xlink="http://www.w3.org/1999/xlink" x="0px" y="0px"
	 viewBox="0 0 42 22" enable-background="new 0 0 42 22" xml:space="preserve">
<image overflow="visible" width="42" height="22" xlink:href="../Web v3/assets/holes.png" >
</image>
<g>
	<image overflow="visible" width="114" height="94" xlink:href="A2E03F4.png"  transform="matrix(1 0 0 1 -36 -36)">
	</image>
</g>
<g>
	<g>
		<g enable-background="new    ">
			<g>
				<rect x="5.4" y="14" fill="#1B1B1B" width="3.3" height="1"/>
			</g>
			<g enable-background="new    ">
				<defs>
					<path id="SVGID_1_" enable-background="new    " d="M8.8,13.9l0.9,0.5c-0.2,0.4-0.6,0.6-1,0.6v-1C8.7,14,8.7,14,8.8,13.9z"/>
				</defs>
				<clipPath id="SVGID_2_">
					<use xlink:href="#SVGID_1_"  overflow="visible"/>
				</clipPath>
				<g clip-path="url(#SVGID_2_)" enable-background="new    ">
					<path fill="#161616" d="M8.8,13.9l0.9,0.5c0,0,0,0.1-0.1,0.1L8.8,13.9C8.8,13.9,8.8,13.9,8.8,13.9"/>
					<path fill="#161616" d="M8.8,13.9l0.8,0.6c0,0-0.1,0.1-0.1,0.1L8.8,13.9C8.8,14,8.8,13.9,8.8,13.9"/>
					<path fill="#171717" d="M8.8,14l0.7,0.7c0,0-0.1,0.1-0.1,0.1L8.8,14C8.7,14,8.7,14,8.8,14"/>
					<path fill="#171717" d="M8.7,14l0.6,0.8c0,0-0.1,0.1-0.1,0.1L8.7,14C8.7,14,8.7,14,8.7,14"/>
					<path fill="#181818" d="M8.7,14l0.5,0.9c-0.1,0-0.2,0.1-0.2,0.1L8.7,14C8.7,14,8.7,14,8.7,14"/>
					<path fill="#191919" d="M8.7,14L9,15C8.9,15,8.8,15,8.6,15L8.7,14C8.7,14,8.7,14,8.7,14"/>
				</g>
			</g>
			<g enable-background="new    ">
				<defs>
					<path id="SVGID_3_" enable-background="new    " d="M5.4,14v1c-0.4,0-0.8-0.2-1-0.6l0.9-0.5C5.2,14,5.3,14,5.4,14z"/>
				</defs>
				<clipPath id="SVGID_4_">
					<use xlink:href="#SVGID_3_"  overflow="visible"/>
				</clipPath>
				<g clip-path="url(#SVGID_4_)" enable-background="new    ">
					<path fill="#191919" d="M5.4,14v1c-0.1,0-0.1,0-0.2,0L5.4,14C5.3,14,5.3,14,5.4,14"/>
					<path fill="#181818" d="M5.3,14l-0.1,1c-0.1,0-0.2,0-0.2-0.1L5.3,14C5.3,14,5.3,14,5.3,14"/>
					<path fill="#171717" d="M5.3,14l-0.4,0.9c-0.1,0-0.1,0-0.2-0.1L5.3,14C5.3,14,5.3,14,5.3,14"/>
					<path fill="#171717" d="M5.3,14l-0.5,0.9c0,0-0.1-0.1-0.1-0.1L5.3,14C5.3,14,5.3,14,5.3,14"/>
					<path fill="#161616" d="M5.3,14l-0.6,0.8c0,0-0.1-0.1-0.1-0.1L5.3,14C5.3,14,5.3,14,5.3,14"/>
					<path fill="#161616" d="M5.2,14l-0.7,0.7c0,0-0.1-0.1-0.1-0.1L5.2,14C5.2,13.9,5.2,14,5.2,14"/>
					<path fill="#151515" d="M5.2,13.9l-0.8,0.6c0,0-0.1-0.1-0.1-0.1L5.2,13.9C5.2,13.9,5.2,13.9,5.2,13.9"/>
					<path fill="#141414" d="M5.2,13.9l-0.8,0.6c0,0,0,0,0-0.1L5.2,13.9C5.2,13.9,5.2,13.9,5.2,13.9"/>
				</g>
			</g>
			<g>
				<polygon fill="#161616" points="5.2,13.9 4.4,14.4 2.7,11.6 3.6,11.1 				"/>
			</g>
			<g>
				<polygon fill="#171717" points="10.4,11.1 11.3,11.6 9.6,14.4 8.8,13.9 				"/>
			</g>
			<g enable-background="new    ">
				<defs>
					<path id="SVGID_5_" enable-background="new    " d="M10.4,10.9l0.9-0.5c0.2,0.4,0.2,0.8,0,1.2l-0.9-0.5
						C10.4,11,10.4,11,10.4,10.9z"/>
				</defs>
				<clipPath id="SVGID_6_">
					<use xlink:href="#SVGID_5_"  overflow="visible"/>
				</clipPath>
				<g clip-path="url(#SVGID_6_)" enable-background="new    ">
					<path fill="#101010" d="M10.4,10.9l0.9-0.5c0,0,0,0,0,0L10.4,10.9C10.4,10.9,10.4,10.9,10.4,10.9"/>
					<path fill="#111111" d="M10.4,10.9l0.9-0.5c0,0.1,0.1,0.1,0.1,0.2L10.4,10.9C10.4,10.9,10.4,10.9,10.4,10.9"/>
					<path fill="#111111" d="M10.4,11l0.9-0.3c0,0.1,0,0.1,0,0.2L10.4,11C10.4,11,10.4,11,10.4,11"/>
					<path fill="#121212" d="M10.4,11l1-0.2c0,0.1,0,0.1,0,0.2L10.4,11C10.4,11,10.4,11,10.4,11"/>
					<path fill="#131313" d="M10.4,11l1,0c0,0,0,0.1,0,0.1L10.4,11C10.4,11,10.4,11,10.4,11"/>
					<path fill="#131313" d="M10.4,11l1,0.1c0,0,0,0.1,0,0.1L10.4,11C10.4,11,10.4,11,10.4,11"/>
					<path fill="#141414" d="M10.4,11l1,0.2c0,0,0,0.1,0,0.1L10.4,11C10.4,11,10.4,11,10.4,11"/>
					<path fill="#141414" d="M10.4,11l1,0.3c0,0,0,0.1,0,0.1L10.4,11C10.4,11,10.4,11,10.4,11"/>
					<path fill="#151515" d="M10.4,11.1l0.9,0.4c0,0,0,0.1-0.1,0.1L10.4,11.1C10.4,11.1,10.4,11.1,10.4,11.1"/>
					<polyline fill="#161616" points="10.4,11.1 11.3,11.6 11.3,11.6 10.4,11.1 10.4,11.1 					"/>
				</g>
			</g>
			<g enable-background="new    ">
				<defs>
					<path id="SVGID_7_" enable-background="new    " d="M3.6,11.1l-0.9,0.5c-0.2-0.4-0.2-0.8,0-1.2l0.9,0.5C3.6,11,3.6,11,3.6,11.1
						z"/>
				</defs>
				<clipPath id="SVGID_8_">
					<use xlink:href="#SVGID_7_"  overflow="visible"/>
				</clipPath>
				<g clip-path="url(#SVGID_8_)" enable-background="new    ">
					<path fill="#141414" d="M3.6,11.1l-0.9,0.5c0,0,0,0,0,0L3.6,11.1C3.6,11.1,3.6,11.1,3.6,11.1"/>
					<path fill="#141414" d="M3.6,11.1l-0.9,0.5c0,0,0-0.1,0-0.1L3.6,11.1C3.6,11.1,3.6,11.1,3.6,11.1"/>
					<path fill="#131313" d="M3.6,11.1l-0.9,0.4c0,0,0-0.1,0-0.1L3.6,11.1C3.6,11,3.6,11.1,3.6,11.1"/>
					<path fill="#131313" d="M3.6,11l-1,0.3c0,0,0-0.1,0-0.1L3.6,11C3.6,11,3.6,11,3.6,11"/>
					<path fill="#121212" d="M3.6,11l-1,0.1c0-0.1,0-0.1,0-0.2L3.6,11C3.6,11,3.6,11,3.6,11"/>
					<path fill="#111111" d="M3.6,11l-1,0c0-0.1,0-0.1,0-0.2L3.6,11C3.6,11,3.6,11,3.6,11"/>
					<path fill="#111111" d="M3.6,11l-1-0.1c0-0.1,0-0.2,0.1-0.2L3.6,11C3.6,10.9,3.6,11,3.6,11"/>
					<path fill="#101010" d="M3.6,10.9l-0.9-0.3c0-0.1,0-0.1,0.1-0.2L3.6,10.9C3.6,10.9,3.6,10.9,3.6,10.9"/>
				</g>
			</g>
			<g>
				<polygon fill="#111111" points="3.6,10.9 2.7,10.4 4.4,7.6 5.2,8.1 				"/>
			</g>
			<g>
				<rect x="9.5" y="7.6" transform="matrix(0.8669 -0.4985 0.4985 0.8669 -3.276 6.2305)" fill="#121212" width="1" height="3.3"/>
			</g>
			<g>
				<rect x="5.4" y="7" fill="#101010" width="3.3" height="1"/>
			</g>
			<g enable-background="new    ">
				<defs>
					<path id="SVGID_9_" enable-background="new    " d="M5.2,8.1L4.4,7.6C4.6,7.2,4.9,7,5.4,7v1C5.3,8,5.2,8,5.2,8.1z"/>
				</defs>
				<clipPath id="SVGID_10_">
					<use xlink:href="#SVGID_9_"  overflow="visible"/>
				</clipPath>
				<g clip-path="url(#SVGID_10_)" enable-background="new    ">
					<path fill="#101010" d="M5.2,8.1L4.4,7.6c0,0,0-0.1,0.1-0.1L5.2,8.1C5.2,8.1,5.2,8.1,5.2,8.1"/>
					<path fill="#101010" d="M5.2,8.1L4.4,7.5C4.6,7.2,5,7,5.4,7v1C5.3,8,5.3,8,5.2,8.1"/>
				</g>
			</g>
			<g>
				<path fill="#1C1C1C" d="M8.6,8c0,0,0.1,0,0.1,0.1l1.6,2.8c0,0,0,0.1,0,0.1l-1.7,2.9c0,0-0.1,0.1-0.1,0.1H5.4
					c-0.1,0-0.1,0-0.1-0.1l-1.6-2.8c0,0,0-0.1,0-0.2l1.6-2.8C5.2,8,5.3,8,5.4,8H8.6z"/>
			</g>
			<g enable-background="new    ">
				<defs>
					<path id="SVGID_11_" enable-background="new    " d="M8.6,8V7c0.4,0,0.8,0.2,1,0.6L8.8,8.1C8.7,8,8.7,8,8.6,8z"/>
				</defs>
				<clipPath id="SVGID_12_">
					<use xlink:href="#SVGID_11_"  overflow="visible"/>
				</clipPath>
				<g clip-path="url(#SVGID_12_)" enable-background="new    ">
					<path fill="#101010" d="M8.6,8V7C9,7,9.2,7.1,9.5,7.3L8.6,8C8.7,8,8.7,8,8.6,8"/>
					<path fill="#101010" d="M8.7,8l0.7-0.7c0.1,0.1,0.1,0.2,0.2,0.2L8.7,8C8.8,8.1,8.8,8.1,8.7,8"/>
				</g>
			</g>
		</g>
	</g>
</g>
<g>
	<g>
		<g enable-background="new    ">
			<g>
				<rect x="18.9" y="14" fill="#1B1B1B" width="3.3" height="1"/>
			</g>
			<g enable-background="new    ">
				<defs>
					<path id="SVGID_13_" enable-background="new    " d="M22.3,13.9l0.9,0.5c-0.2,0.4-0.6,0.6-1,0.6v-1C22.2,14,22.3,14,22.3,13.9z
						"/>
				</defs>
				<clipPath id="SVGID_14_">
					<use xlink:href="#SVGID_13_"  overflow="visible"/>
				</clipPath>
				<g clip-path="url(#SVGID_14_)" enable-background="new    ">
					<path fill="#161616" d="M22.3,13.9l0.9,0.5c0,0,0,0.1-0.1,0.1L22.3,13.9C22.3,13.9,22.3,13.9,22.3,13.9"/>
					<path fill="#161616" d="M22.3,13.9l0.8,0.6c0,0-0.1,0.1-0.1,0.1L22.3,13.9C22.3,13.9,22.3,13.9,22.3,13.9"/>
					<path fill="#171717" d="M22.3,14l0.7,0.7c0,0-0.1,0.1-0.1,0.1L22.3,14C22.3,14,22.3,14,22.3,14"/>
					<path fill="#171717" d="M22.3,14l0.6,0.8c0,0-0.1,0.1-0.1,0.1L22.3,14C22.3,14,22.3,14,22.3,14"/>
					<path fill="#181818" d="M22.3,14l0.5,0.9c-0.1,0-0.2,0.1-0.2,0.1L22.3,14C22.2,14,22.3,14,22.3,14"/>
					<path fill="#191919" d="M22.2,14l0.3,1c-0.1,0-0.2,0.1-0.3,0.1L22.2,14C22.2,14,22.2,14,22.2,14"/>
				</g>
			</g>
			<g enable-background="new    ">
				<defs>
					<path id="SVGID_15_" enable-background="new    " d="M18.9,14v1c-0.4,0-0.8-0.2-1-0.6l0.9-0.5C18.8,14,18.8,14,18.9,14z"/>
				</defs>
				<clipPath id="SVGID_16_">
					<use xlink:href="#SVGID_15_"  overflow="visible"/>
				</clipPath>
				<g clip-path="url(#SVGID_16_)" enable-background="new    ">
					<path fill="#191919" d="M18.9,14v1c-0.1,0-0.1,0-0.2,0L18.9,14C18.9,14,18.9,14,18.9,14"/>
					<path fill="#181818" d="M18.9,14l-0.1,1c-0.1,0-0.2,0-0.2-0.1L18.9,14C18.9,14,18.9,14,18.9,14"/>
					<path fill="#171717" d="M18.8,14l-0.3,0.9c-0.1,0-0.1,0-0.2-0.1L18.8,14C18.8,14,18.8,14,18.8,14"/>
					<path fill="#171717" d="M18.8,14l-0.5,0.9c0,0-0.1-0.1-0.1-0.1L18.8,14C18.8,14,18.8,14,18.8,14"/>
					<path fill="#161616" d="M18.8,14l-0.6,0.8c0,0-0.1-0.1-0.1-0.1L18.8,14C18.8,14,18.8,14,18.8,14"/>
					<path fill="#161616" d="M18.8,14l-0.7,0.7c0,0-0.1-0.1-0.1-0.1L18.8,14C18.8,13.9,18.8,14,18.8,14"/>
					<path fill="#151515" d="M18.8,13.9L18,14.6c0,0-0.1-0.1-0.1-0.1L18.8,13.9C18.8,13.9,18.8,13.9,18.8,13.9"/>
					<path fill="#141414" d="M18.8,13.9l-0.8,0.6c0,0,0,0,0-0.1L18.8,13.9C18.8,13.9,18.8,13.9,18.8,13.9"/>
				</g>
			</g>
			<g>
				<polygon fill="#171717" points="24,11.1 24.8,11.6 23.2,14.4 22.3,13.9 				"/>
			</g>
			<g>
				<polygon fill="#161616" points="18.8,13.9 17.9,14.4 16.3,11.6 17.1,11.1 				"/>
			</g>
			<g enable-background="new    ">
				<defs>
					<path id="SVGID_17_" enable-background="new    " d="M24,10.9l0.9-0.5c0.2,0.4,0.2,0.8,0,1.2L24,11.1C24,11,24,11,24,10.9z"/>
				</defs>
				<clipPath id="SVGID_18_">
					<use xlink:href="#SVGID_17_"  overflow="visible"/>
				</clipPath>
				<g clip-path="url(#SVGID_18_)" enable-background="new    ">
					<path fill="#111111" d="M24,10.9l0.9-0.5c0,0.1,0.1,0.1,0.1,0.2L24,10.9C24,10.9,24,10.9,24,10.9"/>
					<path fill="#111111" d="M24,10.9l0.9-0.3c0,0.1,0,0.1,0,0.2L24,10.9C24,11,24,11,24,10.9"/>
					<path fill="#121212" d="M24,11l1-0.2c0,0.1,0,0.1,0,0.2L24,11C24,11,24,11,24,11"/>
					<path fill="#131313" d="M24,11l1,0c0,0,0,0.1,0,0.1L24,11C24,11,24,11,24,11"/>
					<path fill="#131313" d="M24,11l1,0.1c0,0,0,0.1,0,0.1L24,11C24,11,24,11,24,11"/>
					<path fill="#141414" d="M24,11l1,0.2c0,0,0,0.1,0,0.1L24,11C24,11,24,11,24,11"/>
					<path fill="#141414" d="M24,11.1l0.9,0.3c0,0,0,0.1,0,0.1L24,11.1C24,11.1,24,11.1,24,11.1"/>
					<path fill="#151515" d="M24,11.1l0.9,0.4c0,0,0,0.1,0,0.1L24,11.1C24,11.1,24,11.1,24,11.1"/>
				</g>
			</g>
			<g enable-background="new    ">
				<defs>
					<path id="SVGID_19_" enable-background="new    " d="M17.1,11.1l-0.9,0.5c-0.2-0.4-0.2-0.8,0-1.2l0.9,0.5
						C17.1,11,17.1,11,17.1,11.1z"/>
				</defs>
				<clipPath id="SVGID_20_">
					<use xlink:href="#SVGID_19_"  overflow="visible"/>
				</clipPath>
				<g clip-path="url(#SVGID_20_)" enable-background="new    ">
					<path fill="#141414" d="M17.1,11.1l-0.9,0.5c0,0,0,0,0-0.1L17.1,11.1C17.1,11.1,17.1,11.1,17.1,11.1"/>
					<path fill="#141414" d="M17.1,11.1l-0.9,0.5c0,0,0-0.1-0.1-0.1L17.1,11.1C17.1,11.1,17.1,11.1,17.1,11.1"/>
					<path fill="#131313" d="M17.1,11.1l-0.9,0.4c0,0,0-0.1,0-0.1L17.1,11.1C17.1,11,17.1,11,17.1,11.1"/>
					<path fill="#131313" d="M17.1,11l-1,0.3c0,0,0-0.1,0-0.1L17.1,11C17.1,11,17.1,11,17.1,11"/>
					<path fill="#121212" d="M17.1,11l-1,0.1c0,0,0-0.1,0-0.2L17.1,11C17.1,11,17.1,11,17.1,11"/>
					<path fill="#111111" d="M17.1,11l-1,0c0-0.1,0-0.1,0-0.2L17.1,11C17.1,11,17.1,11,17.1,11"/>
					<path fill="#111111" d="M17.1,11l-1-0.1c0-0.1,0-0.1,0.1-0.2L17.1,11C17.1,11,17.1,11,17.1,11"/>
					<path fill="#101010" d="M17.1,10.9l-0.9-0.3c0-0.1,0.1-0.1,0.1-0.2L17.1,10.9C17.1,10.9,17.1,10.9,17.1,10.9"/>
				</g>
			</g>
			<g>
				
					<rect x="15.9" y="8.7" transform="matrix(0.4985 -0.8669 0.8669 0.4985 0.7632 19.8191)" fill="#111111" width="3.3" height="1"/>
			</g>
			<g>
				
					<rect x="23.1" y="7.6" transform="matrix(0.8669 -0.4985 0.4985 0.8669 -1.4732 12.9823)" fill="#121212" width="1" height="3.3"/>
			</g>
			<g>
				<rect x="18.9" y="7" fill="#101010" width="3.3" height="1"/>
			</g>
			<g enable-background="new    ">
				<defs>
					<path id="SVGID_21_" enable-background="new    " d="M22.2,8V7c0.4,0,0.8,0.2,1,0.6l-0.9,0.5C22.3,8,22.2,8,22.2,8z"/>
				</defs>
				<clipPath id="SVGID_22_">
					<use xlink:href="#SVGID_21_"  overflow="visible"/>
				</clipPath>
				<g clip-path="url(#SVGID_22_)" enable-background="new    ">
					<path fill="#101010" d="M22.2,8V7c0.3,0,0.6,0.1,0.8,0.3L22.3,8C22.3,8,22.2,8,22.2,8"/>
					<path fill="#101010" d="M22.3,8L23,7.3c0.1,0.1,0.1,0.2,0.2,0.2L22.3,8C22.3,8.1,22.3,8.1,22.3,8"/>
				</g>
			</g>
			<g>
				<path fill="#1C1C1C" d="M22.2,8c0.1,0,0.1,0,0.1,0.1l1.6,2.8c0,0,0,0.1,0,0.2l-1.6,2.8c0,0-0.1,0.1-0.1,0.1h-3.3
					c0,0-0.1,0-0.1-0.1l-1.6-2.8c0,0,0-0.1,0-0.2l1.6-2.8C18.8,8,18.8,8,18.9,8H22.2z"/>
			</g>
			<g enable-background="new    ">
				<defs>
					<path id="SVGID_23_" enable-background="new    " d="M18.8,8.1l-0.9-0.5c0.2-0.4,0.6-0.6,1-0.6v1C18.8,8,18.8,8,18.8,8.1z"/>
				</defs>
				<clipPath id="SVGID_24_">
					<use xlink:href="#SVGID_23_"  overflow="visible"/>
				</clipPath>
				<g clip-path="url(#SVGID_24_)" enable-background="new    ">
					<path fill="#101010" d="M18.8,8.1l-0.9-0.5c0,0,0-0.1,0.1-0.1L18.8,8.1C18.8,8.1,18.8,8.1,18.8,8.1"/>
					<path fill="#101010" d="M18.8,8.1L18,7.5C18.2,7.2,18.5,7,18.9,7v1C18.8,8,18.8,8,18.8,8.1"/>
				</g>
			</g>
		</g>
	</g>
</g>
<g>
	<g>
		<g enable-background="new    ">
			<g>
				<rect x="32.9" y="14" fill="#1B1B1B" width="3.3" height="1"/>
			</g>
			<g enable-background="new    ">
				<defs>
					<path id="SVGID_25_" enable-background="new    " d="M36.3,13.9l0.9,0.5c-0.2,0.4-0.6,0.6-1,0.6v-1C36.2,14,36.3,14,36.3,13.9z
						"/>
				</defs>
				<clipPath id="SVGID_26_">
					<use xlink:href="#SVGID_25_"  overflow="visible"/>
				</clipPath>
				<g clip-path="url(#SVGID_26_)" enable-background="new    ">
					<path fill="#161616" d="M36.3,13.9l0.9,0.5c0,0,0,0.1-0.1,0.1L36.3,13.9C36.3,13.9,36.3,13.9,36.3,13.9"/>
					<path fill="#161616" d="M36.3,13.9l0.8,0.6c0,0-0.1,0.1-0.1,0.1L36.3,13.9C36.3,14,36.3,13.9,36.3,13.9"/>
					<path fill="#171717" d="M36.3,14l0.7,0.7c0,0-0.1,0.1-0.1,0.1L36.3,14C36.3,14,36.3,14,36.3,14"/>
					<path fill="#171717" d="M36.3,14l0.6,0.8c0,0-0.1,0.1-0.1,0.1L36.3,14C36.3,14,36.3,14,36.3,14"/>
					<path fill="#181818" d="M36.3,14l0.5,0.9c-0.1,0-0.2,0.1-0.2,0.1L36.3,14C36.2,14,36.2,14,36.3,14"/>
					<path fill="#191919" d="M36.2,14l0.3,1c-0.1,0-0.2,0.1-0.3,0.1L36.2,14C36.2,14,36.2,14,36.2,14"/>
				</g>
			</g>
			<g enable-background="new    ">
				<defs>
					<path id="SVGID_27_" enable-background="new    " d="M32.9,14v1c-0.4,0-0.8-0.2-1-0.6l0.9-0.5C32.8,14,32.8,14,32.9,14z"/>
				</defs>
				<clipPath id="SVGID_28_">
					<use xlink:href="#SVGID_27_"  overflow="visible"/>
				</clipPath>
				<g clip-path="url(#SVGID_28_)" enable-background="new    ">
					<path fill="#191919" d="M32.9,14v1c-0.1,0-0.1,0-0.2,0L32.9,14C32.9,14,32.9,14,32.9,14"/>
					<path fill="#181818" d="M32.9,14l-0.1,1c-0.1,0-0.2,0-0.2-0.1L32.9,14C32.9,14,32.9,14,32.9,14"/>
					<path fill="#171717" d="M32.8,14l-0.4,0.9c-0.1,0-0.1,0-0.2-0.1L32.8,14C32.8,14,32.8,14,32.8,14"/>
					<path fill="#171717" d="M32.8,14l-0.5,0.9c0,0-0.1-0.1-0.1-0.1L32.8,14C32.8,14,32.8,14,32.8,14"/>
					<path fill="#161616" d="M32.8,14l-0.6,0.8c0,0-0.1-0.1-0.1-0.1L32.8,14C32.8,14,32.8,14,32.8,14"/>
					<path fill="#161616" d="M32.8,14l-0.7,0.7c0,0-0.1-0.1-0.1-0.1L32.8,14C32.8,13.9,32.8,14,32.8,14"/>
					<path fill="#151515" d="M32.8,13.9L32,14.6c0,0-0.1-0.1-0.1-0.1L32.8,13.9C32.8,13.9,32.8,13.9,32.8,13.9"/>
					<path fill="#141414" d="M32.8,13.9l-0.8,0.6c0,0,0,0,0-0.1L32.8,13.9C32.8,13.9,32.8,13.9,32.8,13.9"/>
				</g>
			</g>
			<g>
				<polygon fill="#161616" points="32.8,13.9 31.9,14.4 30.2,11.6 31.1,11.1 				"/>
			</g>
			<g>
				<polygon fill="#171717" points="38,11.1 38.8,11.6 37.2,14.4 36.3,13.9 				"/>
			</g>
			<g enable-background="new    ">
				<defs>
					<path id="SVGID_29_" enable-background="new    " d="M38,10.9l0.9-0.5c0.2,0.4,0.2,0.8,0,1.2L38,11.1C38,11,38,11,38,10.9z"/>
				</defs>
				<clipPath id="SVGID_30_">
					<use xlink:href="#SVGID_29_"  overflow="visible"/>
				</clipPath>
				<g clip-path="url(#SVGID_30_)" enable-background="new    ">
					<path fill="#101010" d="M38,10.9l0.9-0.5c0,0,0,0,0,0L38,10.9C38,10.9,38,10.9,38,10.9"/>
					<path fill="#111111" d="M38,10.9l0.9-0.5c0,0.1,0.1,0.1,0.1,0.2L38,10.9C38,10.9,38,10.9,38,10.9"/>
					<path fill="#111111" d="M38,11l0.9-0.3c0,0.1,0,0.1,0,0.2L38,11C38,11,38,11,38,11"/>
					<path fill="#121212" d="M38,11l1-0.2c0,0.1,0,0.1,0,0.2L38,11C38,11,38,11,38,11"/>
					<path fill="#131313" d="M38,11l1,0c0,0,0,0.1,0,0.1L38,11C38,11,38,11,38,11"/>
					<path fill="#131313" d="M38,11l1,0.1c0,0,0,0.1,0,0.1L38,11C38,11,38,11,38,11"/>
					<path fill="#141414" d="M38,11l1,0.2c0,0,0,0.1,0,0.1L38,11C38,11,38,11,38,11"/>
					<path fill="#141414" d="M38,11l1,0.3c0,0,0,0.1,0,0.1L38,11C38,11,38,11,38,11"/>
					<path fill="#151515" d="M38,11.1l0.9,0.4c0,0,0,0.1-0.1,0.1L38,11.1C38,11.1,38,11.1,38,11.1"/>
					<polyline fill="#161616" points="38,11.1 38.8,11.6 38.8,11.6 38,11.1 38,11.1 					"/>
				</g>
			</g>
			<g enable-background="new    ">
				<defs>
					<path id="SVGID_31_" enable-background="new    " d="M31.1,11.1l-0.9,0.5c-0.2-0.4-0.2-0.8,0-1.2l0.9,0.5
						C31.1,11,31.1,11,31.1,11.1z"/>
				</defs>
				<clipPath id="SVGID_32_">
					<use xlink:href="#SVGID_31_"  overflow="visible"/>
				</clipPath>
				<g clip-path="url(#SVGID_32_)" enable-background="new    ">
					<path fill="#141414" d="M31.1,11.1l-0.9,0.5c0,0,0,0,0,0L31.1,11.1C31.1,11.1,31.1,11.1,31.1,11.1"/>
					<path fill="#141414" d="M31.1,11.1l-0.9,0.5c0,0,0-0.1,0-0.1L31.1,11.1C31.1,11.1,31.1,11.1,31.1,11.1"/>
					<path fill="#131313" d="M31.1,11.1l-0.9,0.4c0,0,0-0.1,0-0.1L31.1,11.1C31.1,11,31.1,11.1,31.1,11.1"/>
					<path fill="#131313" d="M31.1,11l-1,0.3c0,0,0-0.1,0-0.1L31.1,11C31.1,11,31.1,11,31.1,11"/>
					<path fill="#121212" d="M31.1,11l-1,0.1c0-0.1,0-0.1,0-0.2L31.1,11C31.1,11,31.1,11,31.1,11"/>
					<path fill="#111111" d="M31.1,11l-1,0c0-0.1,0-0.1,0-0.2L31.1,11C31.1,11,31.1,11,31.1,11"/>
					<path fill="#111111" d="M31.1,11l-1-0.1c0-0.1,0-0.2,0.1-0.2L31.1,11C31.1,10.9,31.1,11,31.1,11"/>
					<path fill="#101010" d="M31.1,10.9l-0.9-0.3c0-0.1,0-0.1,0.1-0.2L31.1,10.9C31.1,10.9,31.1,10.9,31.1,10.9"/>
				</g>
			</g>
			<g>
				<polygon fill="#111111" points="31.1,10.9 30.2,10.4 31.9,7.6 32.8,8.1 				"/>
			</g>
			<g>
				
					<rect x="37.1" y="7.6" transform="matrix(0.8669 -0.4985 0.4985 0.8669 0.3894 19.9582)" fill="#121212" width="1" height="3.3"/>
			</g>
			<g>
				<rect x="32.9" y="7" fill="#101010" width="3.3" height="1"/>
			</g>
			<g enable-background="new    ">
				<defs>
					<path id="SVGID_33_" enable-background="new    " d="M32.8,8.1l-0.9-0.5c0.2-0.4,0.6-0.6,1-0.6v1C32.8,8,32.8,8,32.8,8.1z"/>
				</defs>
				<clipPath id="SVGID_34_">
					<use xlink:href="#SVGID_33_"  overflow="visible"/>
				</clipPath>
				<g clip-path="url(#SVGID_34_)" enable-background="new    ">
					<path fill="#101010" d="M32.8,8.1l-0.9-0.5c0,0,0-0.1,0.1-0.1L32.8,8.1C32.8,8.1,32.8,8.1,32.8,8.1"/>
					<path fill="#101010" d="M32.8,8.1L32,7.5C32.2,7.2,32.5,7,32.9,7v1C32.8,8,32.8,8,32.8,8.1"/>
				</g>
			</g>
			<g>
				<path fill="#1C1C1C" d="M36.2,8c0,0,0.1,0,0.1,0.1l1.6,2.8c0,0,0,0.1,0,0.1l-1.7,2.9c0,0-0.1,0.1-0.1,0.1h-3.3
					c-0.1,0-0.1,0-0.1-0.1l-1.6-2.8c0,0,0-0.1,0-0.2l1.6-2.8c0,0,0.1-0.1,0.1-0.1H36.2z"/>
			</g>
			<g enable-background="new    ">
				<defs>
					<path id="SVGID_35_" enable-background="new    " d="M36.2,8V7c0.4,0,0.8,0.2,1,0.6l-0.9,0.5C36.3,8,36.2,8,36.2,8z"/>
				</defs>
				<clipPath id="SVGID_36_">
					<use xlink:href="#SVGID_35_"  overflow="visible"/>
				</clipPath>
				<g clip-path="url(#SVGID_36_)" enable-background="new    ">
					<path fill="#101010" d="M36.2,8V7c0.3,0,0.6,0.1,0.8,0.3L36.2,8C36.3,8,36.2,8,36.2,8"/>
					<path fill="#101010" d="M36.3,8L37,7.3c0.1,0.1,0.1,0.2,0.2,0.2L36.3,8C36.3,8.1,36.3,8.1,36.3,8"/>
				</g>
			</g>
		</g>
	</g>
</g>
<g>
	<g>
		<g enable-background="new    ">
			<g>
				<rect x="40.9" y="3" fill="#1B1B1B" width="3.3" height="1"/>
			</g>
			<g enable-background="new    ">
				<defs>
					<path id="SVGID_37_" enable-background="new    " d="M44.3,2.9l0.9,0.5C45,3.8,44.6,4,44.2,4V3C44.2,3,44.3,3,44.3,2.9z"/>
				</defs>
				<clipPath id="SVGID_38_">
					<use xlink:href="#SVGID_37_"  overflow="visible"/>
				</clipPath>
				<g clip-path="url(#SVGID_38_)" enable-background="new    ">
					<path fill="#161616" d="M44.3,2.9l0.9,0.5c0,0,0,0.1-0.1,0.1L44.3,2.9C44.3,2.9,44.3,2.9,44.3,2.9"/>
					<path fill="#161616" d="M44.3,2.9l0.8,0.6c0,0-0.1,0.1-0.1,0.1L44.3,2.9C44.3,2.9,44.3,2.9,44.3,2.9"/>
					<path fill="#171717" d="M44.3,3L45,3.6c0,0-0.1,0.1-0.1,0.1L44.3,3C44.3,3,44.3,3,44.3,3"/>
					<path fill="#171717" d="M44.3,3l0.6,0.8c0,0-0.1,0.1-0.1,0.1L44.3,3C44.3,3,44.3,3,44.3,3"/>
					<path fill="#181818" d="M44.3,3l0.5,0.9c-0.1,0-0.2,0.1-0.2,0.1L44.3,3C44.2,3,44.3,3,44.3,3"/>
					<path fill="#191919" d="M44.2,3l0.3,1C44.4,4,44.3,4,44.2,4L44.2,3C44.2,3,44.2,3,44.2,3"/>
				</g>
			</g>
			<g enable-background="new    ">
				<defs>
					<path id="SVGID_39_" enable-background="new    " d="M40.9,3v1c-0.4,0-0.8-0.2-1-0.6l0.9-0.5C40.8,3,40.8,3,40.9,3z"/>
				</defs>
				<clipPath id="SVGID_40_">
					<use xlink:href="#SVGID_39_"  overflow="visible"/>
				</clipPath>
				<g clip-path="url(#SVGID_40_)" enable-background="new    ">
					<path fill="#191919" d="M40.9,3v1c-0.1,0-0.1,0-0.2,0L40.9,3C40.9,3,40.9,3,40.9,3"/>
					<path fill="#181818" d="M40.9,3l-0.1,1c-0.1,0-0.2,0-0.3-0.1L40.9,3C40.8,3,40.9,3,40.9,3"/>
					<path fill="#171717" d="M40.8,3l-0.4,0.9c-0.1,0-0.1,0-0.2-0.1L40.8,3C40.8,3,40.8,3,40.8,3"/>
					<path fill="#171717" d="M40.8,3l-0.5,0.9c0,0-0.1-0.1-0.1-0.1L40.8,3C40.8,3,40.8,3,40.8,3"/>
					<path fill="#161616" d="M40.8,3l-0.6,0.8c0,0-0.1-0.1-0.1-0.1L40.8,3C40.8,3,40.8,3,40.8,3"/>
					<path fill="#161616" d="M40.8,3l-0.7,0.7c0,0-0.1-0.1-0.1-0.1L40.8,3C40.8,2.9,40.8,2.9,40.8,3"/>
					<path fill="#151515" d="M40.8,2.9L40,3.6c0,0-0.1-0.1-0.1-0.1L40.8,2.9C40.8,2.9,40.8,2.9,40.8,2.9"/>
					<path fill="#141414" d="M40.8,2.9l-0.8,0.6c0,0,0,0,0-0.1L40.8,2.9C40.8,2.9,40.8,2.9,40.8,2.9"/>
				</g>
			</g>
			<g>
				
					<rect x="43.9" y="1.3" transform="matrix(0.4985 -0.8669 0.8669 0.4985 21.3352 40.3842)" fill="#171717" width="3.3" height="1"/>
			</g>
			<g>
				<polygon fill="#161616" points="40.8,2.9 39.9,3.4 38.3,0.6 39.1,0.1 				"/>
			</g>
			<g enable-background="new    ">
				<defs>
					<path id="SVGID_41_" enable-background="new    " d="M46-0.1l0.9-0.5c0.2,0.4,0.2,0.8,0,1.2L46,0.1C46,0,46,0,46-0.1z"/>
				</defs>
				<clipPath id="SVGID_42_">
					<use xlink:href="#SVGID_41_"  overflow="visible"/>
				</clipPath>
				<g clip-path="url(#SVGID_42_)" enable-background="new    ">
					<path fill="#101010" d="M46-0.1l0.9-0.5c0,0,0,0,0,0L46-0.1C46-0.1,46-0.1,46-0.1"/>
					<path fill="#111111" d="M46-0.1l0.9-0.5c0,0.1,0.1,0.1,0.1,0.2L46-0.1C46-0.1,46-0.1,46-0.1"/>
					<path fill="#111111" d="M46,0l1-0.3c0,0.1,0,0.1,0,0.2L46,0C46,0,46,0,46,0"/>
					<path fill="#121212" d="M46,0l1-0.2c0,0,0,0.1,0,0.1L46,0C46,0,46,0,46,0"/>
					<path fill="#131313" d="M46,0l1,0c0,0,0,0.1,0,0.1L46,0C46,0,46,0,46,0"/>
					<path fill="#131313" d="M46,0l1,0.1c0,0,0,0.1,0,0.1L46,0C46,0,46,0,46,0"/>
					<path fill="#141414" d="M46,0l1,0.2c0,0,0,0.1,0,0.1L46,0C46,0,46,0,46,0"/>
					<path fill="#141414" d="M46,0l1,0.3c0,0,0,0.1,0,0.1L46,0C46,0.1,46,0.1,46,0"/>
					<path fill="#151515" d="M46,0.1l0.9,0.4c0,0,0,0.1-0.1,0.1L46,0.1C46,0.1,46,0.1,46,0.1"/>
				</g>
			</g>
			<g enable-background="new    ">
				<defs>
					<path id="SVGID_43_" enable-background="new    " d="M39.1,0.1l-0.9,0.5c-0.2-0.4-0.2-0.8,0-1.2l0.9,0.5
						C39.1,0,39.1,0,39.1,0.1z"/>
				</defs>
				<clipPath id="SVGID_44_">
					<use xlink:href="#SVGID_43_"  overflow="visible"/>
				</clipPath>
				<g clip-path="url(#SVGID_44_)" enable-background="new    ">
					<path fill="#141414" d="M39.1,0.1l-0.9,0.5c0,0,0,0,0,0L39.1,0.1C39.1,0.1,39.1,0.1,39.1,0.1"/>
					<path fill="#141414" d="M39.1,0.1l-0.9,0.5c0,0,0-0.1-0.1-0.1L39.1,0.1C39.1,0.1,39.1,0.1,39.1,0.1"/>
					<path fill="#131313" d="M39.1,0.1l-0.9,0.4c0,0,0-0.1,0-0.1L39.1,0.1C39.1,0,39.1,0.1,39.1,0.1"/>
					<path fill="#131313" d="M39.1,0l-1,0.3c0,0,0-0.1,0-0.1L39.1,0C39.1,0,39.1,0,39.1,0"/>
					<path fill="#121212" d="M39.1,0l-1,0.1c0-0.1,0-0.1,0-0.2L39.1,0C39.1,0,39.1,0,39.1,0"/>
					<path fill="#111111" d="M39.1,0l-1,0c0-0.1,0-0.1,0-0.2L39.1,0C39.1,0,39.1,0,39.1,0"/>
					<path fill="#111111" d="M39.1,0l-1-0.1c0-0.1,0-0.1,0.1-0.2L39.1,0C39.1-0.1,39.1,0,39.1,0"/>
					<path fill="#101010" d="M39.1-0.1l-0.9-0.3c0-0.1,0-0.1,0.1-0.2L39.1-0.1C39.1-0.1,39.1-0.1,39.1-0.1"/>
				</g>
			</g>
			<g>
				<polygon fill="#121212" points="44.3,-2.9 45.2,-3.4 46.8,-0.6 46,-0.1 				"/>
			</g>
			<g>
				<polygon fill="#111111" points="39.1,-0.1 38.3,-0.6 39.9,-3.4 40.8,-2.9 				"/>
			</g>
			<g>
				<rect x="40.9" y="-4" fill="#101010" width="3.3" height="1"/>
			</g>
			<g enable-background="new    ">
				<defs>
					<path id="SVGID_45_" enable-background="new    " d="M40.8-2.9l-0.9-0.5c0.2-0.4,0.6-0.6,1-0.6v1C40.8-3,40.8-3,40.8-2.9z"/>
				</defs>
				<clipPath id="SVGID_46_">
					<use xlink:href="#SVGID_45_"  overflow="visible"/>
				</clipPath>
				<g clip-path="url(#SVGID_46_)" enable-background="new    ">
					<path fill="#101010" d="M40.8-2.9l-0.9-0.5c0,0,0-0.1,0.1-0.1L40.8-2.9C40.8-2.9,40.8-2.9,40.8-2.9"/>
					<path fill="#101010" d="M40.8-2.9l-0.8-0.6C40.2-3.8,40.5-4,40.9-4v1C40.8-3,40.8-3,40.8-2.9"/>
				</g>
			</g>
			<g>
				<path fill="#1C1C1C" d="M44.2-3c0.1,0,0.1,0,0.1,0.1L46-0.1c0,0,0,0.1,0,0.2l-1.6,2.9c0,0-0.1,0.1-0.1,0.1h-3.3
					c-0.1,0-0.1,0-0.1-0.1l-1.6-2.8c0,0,0-0.1,0-0.2l1.6-2.8c0,0,0.1-0.1,0.1-0.1H44.2z"/>
			</g>
			<g enable-background="new    ">
				<defs>
					<path id="SVGID_47_" enable-background="new    " d="M44.2-3v-1c0.4,0,0.8,0.2,1,0.6l-0.9,0.5C44.3-3,44.2-3,44.2-3z"/>
				</defs>
				<clipPath id="SVGID_48_">
					<use xlink:href="#SVGID_47_"  overflow="visible"/>
				</clipPath>
				<g clip-path="url(#SVGID_48_)" enable-background="new    ">
					<path fill="#101010" d="M44.2-3v-1c0.3,0,0.6,0.1,0.8,0.3L44.3-3C44.3-3,44.2-3,44.2-3"/>
					<path fill="#101010" d="M44.3-3L45-3.7c0.1,0.1,0.1,0.1,0.2,0.2L44.3-3C44.3-2.9,44.3-2.9,44.3-3"/>
				</g>
			</g>
		</g>
	</g>
</g>
<g>
	<g>
		<g enable-background="new    ">
			<g>
				<rect x="26.9" y="3" fill="#1B1B1B" width="3.3" height="1"/>
			</g>
			<g enable-background="new    ">
				<defs>
					<path id="SVGID_49_" enable-background="new    " d="M26.9,3v1c-0.4,0-0.8-0.2-1-0.6l0.9-0.5C26.8,3,26.8,3,26.9,3z"/>
				</defs>
				<clipPath id="SVGID_50_">
					<use xlink:href="#SVGID_49_"  overflow="visible"/>
				</clipPath>
				<g clip-path="url(#SVGID_50_)" enable-background="new    ">
					<path fill="#191919" d="M26.9,3v1c-0.1,0-0.1,0-0.2,0L26.9,3C26.9,3,26.9,3,26.9,3"/>
					<path fill="#181818" d="M26.9,3l-0.1,1c-0.1,0-0.2,0-0.3-0.1L26.9,3C26.8,3,26.9,3,26.9,3"/>
					<path fill="#171717" d="M26.8,3l-0.4,0.9c-0.1,0-0.1,0-0.2-0.1L26.8,3C26.8,3,26.8,3,26.8,3"/>
					<path fill="#171717" d="M26.8,3l-0.5,0.9c0,0-0.1-0.1-0.1-0.1L26.8,3C26.8,3,26.8,3,26.8,3"/>
					<path fill="#161616" d="M26.8,3l-0.6,0.8c0,0-0.1-0.1-0.1-0.1L26.8,3C26.8,3,26.8,3,26.8,3"/>
					<path fill="#161616" d="M26.8,3l-0.7,0.7c0,0-0.1-0.1-0.1-0.1L26.8,3C26.8,3,26.8,3,26.8,3"/>
					<path fill="#151515" d="M26.8,3L26,3.6c0,0,0-0.1-0.1-0.1L26.8,3C26.8,2.9,26.8,2.9,26.8,3"/>
					<path fill="#141414" d="M26.8,2.9l-0.8,0.6c0,0,0,0,0-0.1L26.8,2.9C26.8,2.9,26.8,2.9,26.8,2.9"/>
				</g>
			</g>
			<g enable-background="new    ">
				<defs>
					<path id="SVGID_51_" enable-background="new    " d="M30.3,2.9l0.9,0.5C31,3.8,30.6,4,30.2,4V3C30.2,3,30.3,3,30.3,2.9z"/>
				</defs>
				<clipPath id="SVGID_52_">
					<use xlink:href="#SVGID_51_"  overflow="visible"/>
				</clipPath>
				<g clip-path="url(#SVGID_52_)" enable-background="new    ">
					<path fill="#161616" d="M30.3,2.9l0.9,0.5c0,0,0,0.1-0.1,0.1L30.3,2.9C30.3,2.9,30.3,2.9,30.3,2.9"/>
					<path fill="#161616" d="M30.3,2.9l0.8,0.6c0,0-0.1,0.1-0.1,0.1L30.3,2.9C30.3,2.9,30.3,2.9,30.3,2.9"/>
					<path fill="#171717" d="M30.3,3L31,3.6c0,0-0.1,0.1-0.1,0.1L30.3,3C30.3,3,30.3,3,30.3,3"/>
					<path fill="#171717" d="M30.3,3l0.6,0.8c0,0-0.1,0.1-0.1,0.1L30.3,3C30.3,3,30.3,3,30.3,3"/>
					<path fill="#181818" d="M30.3,3l0.5,0.9c-0.1,0-0.2,0.1-0.2,0.1L30.3,3C30.2,3,30.3,3,30.3,3"/>
					<path fill="#191919" d="M30.2,3l0.3,1C30.4,4,30.3,4,30.2,4L30.2,3C30.2,3,30.2,3,30.2,3"/>
				</g>
			</g>
			<g>
				
					<rect x="29.9" y="1.3" transform="matrix(0.4985 -0.8669 0.8669 0.4985 14.3134 28.248)" fill="#171717" width="3.3" height="1"/>
			</g>
			<g>
				<polygon fill="#161616" points="26.8,2.9 25.9,3.4 24.3,0.6 25.1,0.1 				"/>
			</g>
			<g enable-background="new    ">
				<defs>
					<path id="SVGID_53_" enable-background="new    " d="M25.1,0.1l-0.9,0.5c-0.2-0.4-0.2-0.8,0-1.2l0.9,0.5
						C25.1,0,25.1,0,25.1,0.1z"/>
				</defs>
				<clipPath id="SVGID_54_">
					<use xlink:href="#SVGID_53_"  overflow="visible"/>
				</clipPath>
				<g clip-path="url(#SVGID_54_)" enable-background="new    ">
					<path fill="#141414" d="M25.1,0.1l-0.9,0.5c0,0,0,0,0,0L25.1,0.1C25.1,0.1,25.1,0.1,25.1,0.1"/>
					<path fill="#141414" d="M25.1,0.1l-0.9,0.5c0,0,0-0.1-0.1-0.1L25.1,0.1C25.1,0.1,25.1,0.1,25.1,0.1"/>
					<path fill="#131313" d="M25.1,0.1l-0.9,0.4c0,0,0-0.1,0-0.1L25.1,0.1C25.1,0,25.1,0,25.1,0.1"/>
					<path fill="#131313" d="M25.1,0l-1,0.3c0,0,0-0.1,0-0.1L25.1,0C25.1,0,25.1,0,25.1,0"/>
					<path fill="#121212" d="M25.1,0l-1,0.1c0,0,0-0.1,0-0.2L25.1,0C25.1,0,25.1,0,25.1,0"/>
					<path fill="#111111" d="M25.1,0l-1,0c0-0.1,0-0.1,0-0.2L25.1,0C25.1,0,25.1,0,25.1,0"/>
					<path fill="#111111" d="M25.1,0l-1-0.1c0-0.1,0-0.1,0.1-0.2L25.1,0C25.1,0,25.1,0,25.1,0"/>
					<path fill="#101010" d="M25.1-0.1l-0.9-0.3c0-0.1,0.1-0.1,0.1-0.2L25.1-0.1C25.1-0.1,25.1-0.1,25.1-0.1"/>
				</g>
			</g>
			<g enable-background="new    ">
				<defs>
					<path id="SVGID_55_" enable-background="new    " d="M32-0.1l0.9-0.5c0.2,0.4,0.2,0.8,0,1.2L32,0.1C32,0,32,0,32-0.1z"/>
				</defs>
				<clipPath id="SVGID_56_">
					<use xlink:href="#SVGID_55_"  overflow="visible"/>
				</clipPath>
				<g clip-path="url(#SVGID_56_)" enable-background="new    ">
					<path fill="#101010" d="M32-0.1l0.9-0.5c0,0,0,0,0,0L32-0.1C32-0.1,32-0.1,32-0.1"/>
					<path fill="#111111" d="M32-0.1l0.9-0.5c0,0.1,0.1,0.1,0.1,0.2L32-0.1C32-0.1,32-0.1,32-0.1"/>
					<path fill="#111111" d="M32,0l1-0.3c0,0.1,0,0.1,0,0.2L32,0C32,0,32,0,32,0"/>
					<path fill="#121212" d="M32,0l1-0.2c0,0,0,0.1,0,0.1L32,0C32,0,32,0,32,0"/>
					<path fill="#131313" d="M32,0l1,0c0,0,0,0.1,0,0.1L32,0C32,0,32,0,32,0"/>
					<path fill="#131313" d="M32,0l1,0.1c0,0,0,0.1,0,0.1L32,0C32,0,32,0,32,0"/>
					<path fill="#141414" d="M32,0l1,0.2c0,0,0,0.1,0,0.1L32,0C32,0,32,0,32,0"/>
					<path fill="#141414" d="M32,0l1,0.3c0,0,0,0.1,0,0.1L32,0C32,0.1,32,0.1,32,0"/>
					<path fill="#151515" d="M32,0.1l0.9,0.4c0,0,0,0.1-0.1,0.1L32,0.1C32,0.1,32,0.1,32,0.1"/>
				</g>
			</g>
			<g>
				<polygon fill="#121212" points="30.3,-2.9 31.2,-3.4 32.8,-0.6 32,-0.1 				"/>
			</g>
			<g>
				
					<rect x="23.9" y="-2.3" transform="matrix(0.4985 -0.8669 0.8669 0.4985 14.3144 21.2371)" fill="#111111" width="3.3" height="1"/>
			</g>
			<g enable-background="new    ">
				<defs>
					<path id="SVGID_57_" enable-background="new    " d="M30.2-3v-1c0.4,0,0.8,0.2,1,0.6l-0.9,0.5C30.3-3,30.2-3,30.2-3z"/>
				</defs>
				<clipPath id="SVGID_58_">
					<use xlink:href="#SVGID_57_"  overflow="visible"/>
				</clipPath>
				<g clip-path="url(#SVGID_58_)" enable-background="new    ">
					<path fill="#101010" d="M30.2-3v-1c0.3,0,0.6,0.1,0.8,0.3L30.3-3C30.3-3,30.2-3,30.2-3"/>
					<path fill="#101010" d="M30.3-3L31-3.7c0.1,0.1,0.1,0.1,0.2,0.2L30.3-3C30.3-2.9,30.3-2.9,30.3-3"/>
				</g>
			</g>
			<g>
				<rect x="26.9" y="-4" fill="#101010" width="3.3" height="1"/>
			</g>
			<g>
				<path fill="#1C1C1C" d="M30.2-3c0.1,0,0.1,0,0.1,0.1L32-0.1C32,0,32,0,32,0.1l-1.6,2.9c0,0-0.1,0.1-0.1,0.1h-3.3
					c-0.1,0-0.1,0-0.1-0.1l-1.7-2.9c0,0,0-0.1,0-0.2l1.6-2.9c0,0,0.1-0.1,0.1-0.1H30.2z"/>
			</g>
			<g enable-background="new    ">
				<defs>
					<path id="SVGID_59_" enable-background="new    " d="M26.8-2.9l-0.9-0.5c0.2-0.4,0.6-0.6,1-0.6v1C26.8-3,26.8-3,26.8-2.9z"/>
				</defs>
				<clipPath id="SVGID_60_">
					<use xlink:href="#SVGID_59_"  overflow="visible"/>
				</clipPath>
				<g clip-path="url(#SVGID_60_)" enable-background="new    ">
					<path fill="#101010" d="M26.8-2.9l-0.9-0.5c0,0,0-0.1,0.1-0.1L26.8-2.9C26.8-2.9,26.8-2.9,26.8-2.9"/>
					<path fill="#101010" d="M26.8-2.9L26-3.5C26.2-3.8,26.5-4,26.9-4v1C26.8-3,26.8-3,26.8-2.9"/>
				</g>
			</g>
		</g>
	</g>
</g>
<g>
	<g>
		<g enable-background="new    ">
			<g>
				<rect x="11.9" y="3" fill="#1B1B1B" width="3.3" height="1"/>
			</g>
			<g enable-background="new    ">
				<defs>
					<path id="SVGID_61_" enable-background="new    " d="M15.3,2.9l0.9,0.5C16,3.8,15.6,4,15.2,4V3C15.2,3,15.3,3,15.3,2.9z"/>
				</defs>
				<clipPath id="SVGID_62_">
					<use xlink:href="#SVGID_61_"  overflow="visible"/>
				</clipPath>
				<g clip-path="url(#SVGID_62_)" enable-background="new    ">
					<path fill="#161616" d="M15.3,2.9l0.9,0.5c0,0,0,0.1-0.1,0.1L15.3,2.9C15.3,2.9,15.3,2.9,15.3,2.9"/>
					<path fill="#161616" d="M15.3,2.9l0.8,0.6c0,0-0.1,0.1-0.1,0.1L15.3,2.9C15.3,2.9,15.3,2.9,15.3,2.9"/>
					<path fill="#171717" d="M15.3,3L16,3.6c0,0-0.1,0.1-0.1,0.1L15.3,3C15.3,3,15.3,3,15.3,3"/>
					<path fill="#171717" d="M15.3,3l0.6,0.8c0,0-0.1,0.1-0.1,0.1L15.3,3C15.3,3,15.3,3,15.3,3"/>
					<path fill="#181818" d="M15.3,3l0.5,0.9c-0.1,0-0.2,0.1-0.2,0.1L15.3,3C15.2,3,15.3,3,15.3,3"/>
					<path fill="#191919" d="M15.2,3l0.3,1C15.4,4,15.3,4,15.2,4L15.2,3C15.2,3,15.2,3,15.2,3"/>
				</g>
			</g>
			<g enable-background="new    ">
				<defs>
					<path id="SVGID_63_" enable-background="new    " d="M11.9,3v1c-0.4,0-0.8-0.2-1-0.6l0.9-0.5C11.8,3,11.8,3,11.9,3z"/>
				</defs>
				<clipPath id="SVGID_64_">
					<use xlink:href="#SVGID_63_"  overflow="visible"/>
				</clipPath>
				<g clip-path="url(#SVGID_64_)" enable-background="new    ">
					<path fill="#191919" d="M11.9,3v1c-0.1,0-0.1,0-0.2,0L11.9,3C11.9,3,11.9,3,11.9,3"/>
					<path fill="#181818" d="M11.9,3l-0.1,1c-0.1,0-0.2,0-0.3-0.1L11.9,3C11.8,3,11.9,3,11.9,3"/>
					<path fill="#171717" d="M11.8,3l-0.4,0.9c-0.1,0-0.1,0-0.2-0.1L11.8,3C11.8,3,11.8,3,11.8,3"/>
					<path fill="#171717" d="M11.8,3l-0.5,0.9c0,0-0.1-0.1-0.1-0.1L11.8,3C11.8,3,11.8,3,11.8,3"/>
					<path fill="#161616" d="M11.8,3l-0.6,0.8c0,0-0.1-0.1-0.1-0.1L11.8,3C11.8,3,11.8,3,11.8,3"/>
					<path fill="#161616" d="M11.8,3l-0.7,0.7c0,0-0.1-0.1-0.1-0.1L11.8,3C11.8,2.9,11.8,2.9,11.8,3"/>
					<path fill="#151515" d="M11.8,2.9L11,3.6c0,0-0.1-0.1-0.1-0.1L11.8,2.9C11.8,2.9,11.8,2.9,11.8,2.9"/>
					<path fill="#141414" d="M11.8,2.9l-0.8,0.6c0,0,0,0,0-0.1L11.8,2.9C11.8,2.9,11.8,2.9,11.8,2.9"/>
				</g>
			</g>
			<g>
				
					<rect x="14.9" y="1.3" transform="matrix(0.4985 -0.8669 0.8669 0.4985 6.7919 15.2457)" fill="#171717" width="3.3" height="1"/>
			</g>
			<g>
				<polygon fill="#161616" points="11.8,2.9 10.9,3.4 9.3,0.6 10.1,0.1 				"/>
			</g>
			<g enable-background="new    ">
				<defs>
					<path id="SVGID_65_" enable-background="new    " d="M17-0.1l0.9-0.5c0.2,0.4,0.2,0.8,0,1.2L17,0.1C17,0,17,0,17-0.1z"/>
				</defs>
				<clipPath id="SVGID_66_">
					<use xlink:href="#SVGID_65_"  overflow="visible"/>
				</clipPath>
				<g clip-path="url(#SVGID_66_)" enable-background="new    ">
					<path fill="#101010" d="M17-0.1l0.9-0.5c0,0,0,0,0,0L17-0.1C17-0.1,17-0.1,17-0.1"/>
					<path fill="#111111" d="M17-0.1l0.9-0.5c0,0.1,0.1,0.1,0.1,0.2L17-0.1C17-0.1,17-0.1,17-0.1"/>
					<path fill="#111111" d="M17,0l1-0.3c0,0.1,0,0.1,0,0.2L17,0C17,0,17,0,17,0"/>
					<path fill="#121212" d="M17,0l1-0.2c0,0,0,0.1,0,0.1L17,0C17,0,17,0,17,0"/>
					<path fill="#131313" d="M17,0l1,0c0,0,0,0.1,0,0.1L17,0C17,0,17,0,17,0"/>
					<path fill="#131313" d="M17,0l1,0.1c0,0,0,0.1,0,0.1L17,0C17,0,17,0,17,0"/>
					<path fill="#141414" d="M17,0l1,0.2c0,0,0,0.1,0,0.1L17,0C17,0,17,0,17,0"/>
					<path fill="#141414" d="M17,0l1,0.3c0,0,0,0.1,0,0.1L17,0C17,0.1,17,0.1,17,0"/>
					<path fill="#151515" d="M17,0.1l0.9,0.4c0,0,0,0.1-0.1,0.1L17,0.1C17,0.1,17,0.1,17,0.1"/>
				</g>
			</g>
			<g enable-background="new    ">
				<defs>
					<path id="SVGID_67_" enable-background="new    " d="M10.1,0.1L9.3,0.6C9,0.2,9-0.2,9.3-0.6l0.9,0.5C10.1,0,10.1,0,10.1,0.1z"
						/>
				</defs>
				<clipPath id="SVGID_68_">
					<use xlink:href="#SVGID_67_"  overflow="visible"/>
				</clipPath>
				<g clip-path="url(#SVGID_68_)" enable-background="new    ">
					<path fill="#141414" d="M10.1,0.1L9.3,0.6c0,0,0,0,0,0L10.1,0.1C10.1,0.1,10.1,0.1,10.1,0.1"/>
					<path fill="#141414" d="M10.1,0.1L9.2,0.5c0,0,0-0.1-0.1-0.1L10.1,0.1C10.1,0.1,10.1,0.1,10.1,0.1"/>
					<path fill="#131313" d="M10.1,0.1L9.2,0.4c0,0,0-0.1,0-0.1L10.1,0.1C10.1,0,10.1,0,10.1,0.1"/>
					<path fill="#131313" d="M10.1,0l-1,0.3c0,0,0-0.1,0-0.1L10.1,0C10.1,0,10.1,0,10.1,0"/>
					<path fill="#121212" d="M10.1,0l-1,0.1c0,0,0-0.1,0-0.2L10.1,0C10.1,0,10.1,0,10.1,0"/>
					<path fill="#111111" d="M10.1,0l-1,0c0-0.1,0-0.1,0-0.2L10.1,0C10.1,0,10.1,0,10.1,0"/>
					<path fill="#111111" d="M10.1,0l-1-0.1c0-0.1,0-0.1,0.1-0.2L10.1,0C10.1,0,10.1,0,10.1,0"/>
					<path fill="#101010" d="M10.1-0.1L9.2-0.4c0-0.1,0.1-0.1,0.1-0.2L10.1-0.1C10.1-0.1,10.1-0.1,10.1-0.1"/>
				</g>
			</g>
			<g>
				<polygon fill="#121212" points="15.3,-2.9 16.2,-3.4 17.8,-0.6 17,-0.1 				"/>
			</g>
			<g>
				<rect x="8.9" y="-2.3" transform="matrix(0.4985 -0.8669 0.8669 0.4985 6.79 8.231)" fill="#111111" width="3.3" height="1"/>
			</g>
			<g>
				<path fill="#1C1C1C" d="M15.2-3c0.1,0,0.1,0,0.1,0.1L17-0.1c0,0,0,0.1,0,0.2l-1.6,2.9c0,0-0.1,0.1-0.1,0.1h-3.3
					c-0.1,0-0.1,0-0.1-0.1l-1.6-2.8c0,0,0-0.1,0-0.2l1.6-2.9c0,0,0.1-0.1,0.1-0.1H15.2z"/>
			</g>
			<g enable-background="new    ">
				<defs>
					<path id="SVGID_69_" enable-background="new    " d="M15.2-3v-1c0.4,0,0.8,0.2,1,0.6l-0.9,0.5C15.3-3,15.2-3,15.2-3z"/>
				</defs>
				<clipPath id="SVGID_70_">
					<use xlink:href="#SVGID_69_"  overflow="visible"/>
				</clipPath>
				<g clip-path="url(#SVGID_70_)" enable-background="new    ">
					<path fill="#101010" d="M15.2-3v-1c0.3,0,0.6,0.1,0.8,0.3L15.3-3C15.3-3,15.2-3,15.2-3"/>
					<path fill="#101010" d="M15.3-3L16-3.7c0.1,0.1,0.1,0.1,0.2,0.2L15.3-3C15.3-2.9,15.3-2.9,15.3-3"/>
				</g>
			</g>
			<g enable-background="new    ">
				<defs>
					<path id="SVGID_71_" enable-background="new    " d="M11.8-2.9l-0.9-0.5c0.2-0.4,0.6-0.6,1-0.6v1C11.8-3,11.8-3,11.8-2.9z"/>
				</defs>
				<clipPath id="SVGID_72_">
					<use xlink:href="#SVGID_71_"  overflow="visible"/>
				</clipPath>
				<g clip-path="url(#SVGID_72_)" enable-background="new    ">
					<path fill="#101010" d="M11.8-2.9l-0.9-0.5c0,0,0-0.1,0.1-0.1L11.8-2.9C11.8-2.9,11.8-2.9,11.8-2.9"/>
					<path fill="#101010" d="M11.8-2.9L11-3.5C11.2-3.8,11.5-4,11.9-4v1C11.8-3,11.8-3,11.8-2.9"/>
				</g>
			</g>
			<g>
				<rect x="11.9" y="-4" fill="#101010" width="3.3" height="1"/>
			</g>
		</g>
	</g>
</g>
<g>
	<g>
		<g enable-background="new    ">
			<g>
				<rect x="-2.1" y="3" fill="#1B1B1B" width="3.3" height="1"/>
			</g>
			<g enable-background="new    ">
				<defs>
					<path id="SVGID_73_" enable-background="new    " d="M1.3,2.9l0.9,0.5C2,3.8,1.6,4,1.2,4l0-1C1.2,3,1.3,3,1.3,2.9z"/>
				</defs>
				<clipPath id="SVGID_74_">
					<use xlink:href="#SVGID_73_"  overflow="visible"/>
				</clipPath>
				<g clip-path="url(#SVGID_74_)" enable-background="new    ">
					<path fill="#151515" d="M1.3,2.9l0.9,0.5c0,0,0,0,0,0L1.3,2.9C1.3,2.9,1.3,2.9,1.3,2.9"/>
					<path fill="#161616" d="M1.3,2.9l0.9,0.5c0,0,0,0.1-0.1,0.1L1.3,2.9C1.3,2.9,1.3,2.9,1.3,2.9"/>
					<path fill="#161616" d="M1.3,2.9l0.8,0.6c0,0-0.1,0.1-0.1,0.1L1.3,2.9C1.3,2.9,1.3,2.9,1.3,2.9"/>
					<path fill="#171717" d="M1.3,3L2,3.6c0,0-0.1,0.1-0.1,0.1L1.3,3C1.3,3,1.3,3,1.3,3"/>
					<path fill="#171717" d="M1.3,3l0.6,0.8c0,0-0.1,0.1-0.1,0.1L1.3,3C1.3,3,1.3,3,1.3,3"/>
					<path fill="#181818" d="M1.3,3l0.5,0.9c-0.1,0-0.2,0.1-0.2,0.1L1.3,3C1.2,3,1.3,3,1.3,3"/>
					<path fill="#191919" d="M1.2,3l0.3,1C1.4,4,1.3,4,1.2,4L1.2,3C1.2,3,1.2,3,1.2,3"/>
				</g>
			</g>
			<g enable-background="new    ">
				<defs>
					<path id="SVGID_75_" enable-background="new    " d="M-2.1,3l0,1c-0.4,0-0.8-0.2-1-0.6l0.9-0.5C-2.2,3-2.2,3-2.1,3z"/>
				</defs>
				<clipPath id="SVGID_76_">
					<use xlink:href="#SVGID_75_"  overflow="visible"/>
				</clipPath>
				<g clip-path="url(#SVGID_76_)" enable-background="new    ">
					<path fill="#191919" d="M-2.1,3l0,1c-0.1,0-0.1,0-0.2,0L-2.1,3C-2.1,3-2.1,3-2.1,3"/>
					<path fill="#181818" d="M-2.1,3l-0.1,1c-0.1,0-0.2,0-0.3-0.1L-2.1,3C-2.2,3-2.1,3-2.1,3"/>
					<path fill="#171717" d="M-2.2,3l-0.4,0.9c-0.1,0-0.1,0-0.2-0.1L-2.2,3C-2.2,3-2.2,3-2.2,3"/>
					<path fill="#171717" d="M-2.2,3l-0.5,0.9c0,0-0.1-0.1-0.1-0.1L-2.2,3C-2.2,3-2.2,3-2.2,3"/>
					<path fill="#161616" d="M-2.2,3l-0.6,0.8c0,0-0.1-0.1-0.1-0.1L-2.2,3C-2.2,3-2.2,3-2.2,3"/>
					<path fill="#161616" d="M-2.2,3l-0.7,0.7c0,0-0.1-0.1-0.1-0.1L-2.2,3C-2.2,2.9-2.2,2.9-2.2,3"/>
					<path fill="#151515" d="M-2.2,2.9L-3,3.6c0,0-0.1-0.1-0.1-0.1L-2.2,2.9C-2.2,2.9-2.2,2.9-2.2,2.9"/>
					<path fill="#141414" d="M-2.2,2.9l-0.8,0.6c0,0,0,0,0-0.1L-2.2,2.9C-2.2,2.9-2.2,2.9-2.2,2.9"/>
				</g>
			</g>
			<g>
				
					<rect x="0.9" y="1.3" transform="matrix(0.4985 -0.8669 0.8669 0.4985 -0.2315 3.1056)" fill="#171717" width="3.3" height="1"/>
			</g>
			<g>
				<polygon fill="#161616" points="-2.2,2.9 -3.1,3.4 -4.8,0.6 -3.9,0.1 				"/>
			</g>
			<g enable-background="new    ">
				<defs>
					<path id="SVGID_77_" enable-background="new    " d="M3-0.1l0.9-0.5C4-0.2,4,0.2,3.8,0.6L3,0.1C3,0,3,0,3-0.1z"/>
				</defs>
				<clipPath id="SVGID_78_">
					<use xlink:href="#SVGID_77_"  overflow="visible"/>
				</clipPath>
				<g clip-path="url(#SVGID_78_)" enable-background="new    ">
					<path fill="#101010" d="M3-0.1l0.9-0.5c0,0,0,0,0,0L3-0.1C3-0.1,3-0.1,3-0.1"/>
					<path fill="#111111" d="M3-0.1l0.9-0.5c0,0.1,0.1,0.1,0.1,0.2L3-0.1C3-0.1,3-0.1,3-0.1"/>
					<path fill="#111111" d="M3,0l1-0.3c0,0.1,0,0.1,0,0.2L3,0C3,0,3,0,3,0"/>
					<path fill="#121212" d="M3,0l1-0.2c0,0,0,0.1,0,0.1L3,0C3,0,3,0,3,0"/>
					<path fill="#131313" d="M3,0l1,0c0,0,0,0.1,0,0.1L3,0C3,0,3,0,3,0"/>
					<path fill="#131313" d="M3,0l1,0.1c0,0,0,0.1,0,0.1L3,0C3,0,3,0,3,0"/>
					<path fill="#141414" d="M3,0l1,0.2c0,0,0,0.1,0,0.1L3,0C3,0,3,0,3,0"/>
					<path fill="#141414" d="M3,0l1,0.3c0,0,0,0.1,0,0.1L3,0C3,0.1,3,0.1,3,0"/>
					<path fill="#151515" d="M3,0.1l0.9,0.4c0,0,0,0.1-0.1,0.1L3,0.1C3,0.1,3,0.1,3,0.1"/>
				</g>
			</g>
			<g enable-background="new    ">
				<defs>
					<path id="SVGID_79_" enable-background="new    " d="M-3.9,0.1l-0.9,0.5c-0.2-0.4-0.2-0.8,0-1.2l0.9,0.5C-3.9,0-3.9,0-3.9,0.1z
						"/>
				</defs>
				<clipPath id="SVGID_80_">
					<use xlink:href="#SVGID_79_"  overflow="visible"/>
				</clipPath>
				<g clip-path="url(#SVGID_80_)" enable-background="new    ">
					<path fill="#141414" d="M-3.9,0.1l-0.9,0.5c0,0,0,0,0,0L-3.9,0.1C-3.9,0.1-3.9,0.1-3.9,0.1"/>
					<path fill="#141414" d="M-3.9,0.1l-0.9,0.5c0,0,0-0.1-0.1-0.1L-3.9,0.1C-3.9,0.1-3.9,0.1-3.9,0.1"/>
					<path fill="#131313" d="M-3.9,0.1l-0.9,0.4c0,0,0-0.1,0-0.1L-3.9,0.1C-3.9,0-3.9,0.1-3.9,0.1"/>
					<path fill="#131313" d="M-3.9,0l-1,0.3c0,0,0-0.1,0-0.1L-3.9,0C-3.9,0-3.9,0-3.9,0"/>
					<path fill="#121212" d="M-3.9,0l-1,0.1c0-0.1,0-0.1,0-0.2L-3.9,0C-3.9,0-3.9,0-3.9,0"/>
					<path fill="#111111" d="M-3.9,0l-1,0c0-0.1,0-0.1,0-0.2L-3.9,0C-3.9,0-3.9,0-3.9,0"/>
					<path fill="#111111" d="M-3.9,0l-1-0.1c0-0.1,0-0.1,0.1-0.2L-3.9,0C-3.9-0.1-3.9,0-3.9,0"/>
					<path fill="#101010" d="M-3.9-0.1l-0.9-0.3c0-0.1,0-0.1,0.1-0.2L-3.9-0.1C-3.9-0.1-3.9-0.1-3.9-0.1"/>
				</g>
			</g>
			<g>
				<polygon fill="#111111" points="-3.9,-0.1 -4.8,-0.6 -3.1,-3.4 -2.2,-2.9 				"/>
			</g>
			<g>
				<polygon fill="#121212" points="1.3,-2.9 2.2,-3.4 3.8,-0.6 3,-0.1 				"/>
			</g>
			<g>
				<rect x="-2.1" y="-4" fill="#101010" width="3.3" height="1"/>
			</g>
			<g enable-background="new    ">
				<defs>
					<path id="SVGID_81_" enable-background="new    " d="M-2.2-2.9l-0.9-0.5C-2.9-3.8-2.5-4-2.1-4v1C-2.2-3-2.2-3-2.2-2.9z"/>
				</defs>
				<clipPath id="SVGID_82_">
					<use xlink:href="#SVGID_81_"  overflow="visible"/>
				</clipPath>
				<g clip-path="url(#SVGID_82_)" enable-background="new    ">
					<path fill="#101010" d="M-2.2-2.9l-0.9-0.5c0,0,0-0.1,0.1-0.1L-2.2-2.9C-2.2-2.9-2.2-2.9-2.2-2.9"/>
					<path fill="#101010" d="M-2.2-2.9l-0.8-0.6C-2.8-3.8-2.5-4-2.1-4v1C-2.2-3-2.2-3-2.2-2.9"/>
				</g>
			</g>
			<g>
				<path fill="#1C1C1C" d="M1.2-3c0.1,0,0.1,0,0.1,0.1L3-0.1C3,0,3,0,3,0.1L1.3,2.9C1.3,3,1.2,3,1.2,3h-3.3c-0.1,0-0.1,0-0.1-0.1
					l-1.6-2.8c0,0,0-0.1,0-0.2l1.6-2.8C-2.2-3-2.2-3-2.1-3H1.2z"/>
			</g>
			<g enable-background="new    ">
				<defs>
					<path id="SVGID_83_" enable-background="new    " d="M1.2-3v-1c0.4,0,0.8,0.2,1,0.6L1.3-2.9C1.3-3,1.2-3,1.2-3z"/>
				</defs>
				<clipPath id="SVGID_84_">
					<use xlink:href="#SVGID_83_"  overflow="visible"/>
				</clipPath>
				<g clip-path="url(#SVGID_84_)" enable-background="new    ">
					<path fill="#101010" d="M1.2-3v-1C1.5-4,1.8-3.9,2-3.7L1.3-3C1.3-3,1.2-3,1.2-3"/>
					<path fill="#101010" d="M1.3-3L2-3.7c0.1,0.1,0.1,0.1,0.2,0.2L1.3-3C1.3-2.9,1.3-3,1.3-3"/>
				</g>
			</g>
		</g>
	</g>
</g>
<g>
	<g>
		<g enable-background="new    ">
			<g>
				<rect x="26.9" y="25" fill="#1B1B1B" width="3.3" height="1"/>
			</g>
			<g enable-background="new    ">
				<defs>
					<path id="SVGID_85_" enable-background="new    " d="M26.9,25v1c-0.4,0-0.8-0.2-1-0.6l0.9-0.5C26.8,25,26.8,25,26.9,25z"/>
				</defs>
				<clipPath id="SVGID_86_">
					<use xlink:href="#SVGID_85_"  overflow="visible"/>
				</clipPath>
				<g clip-path="url(#SVGID_86_)" enable-background="new    ">
					<path fill="#191919" d="M26.9,25v1c-0.1,0-0.1,0-0.2,0L26.9,25C26.9,25,26.9,25,26.9,25"/>
					<path fill="#181818" d="M26.9,25l-0.1,1c-0.1,0-0.2,0-0.3-0.1L26.9,25C26.8,25,26.9,25,26.9,25"/>
					<path fill="#171717" d="M26.8,25l-0.4,0.9c-0.1,0-0.1,0-0.2-0.1L26.8,25C26.8,25,26.8,25,26.8,25"/>
					<path fill="#171717" d="M26.8,25l-0.5,0.9c0,0-0.1-0.1-0.1-0.1L26.8,25C26.8,25,26.8,25,26.8,25"/>
					<path fill="#161616" d="M26.8,25l-0.6,0.8c0,0-0.1-0.1-0.1-0.1L26.8,25C26.8,25,26.8,25,26.8,25"/>
					<path fill="#161616" d="M26.8,25l-0.7,0.7c0,0-0.1-0.1-0.1-0.1L26.8,25C26.8,25,26.8,25,26.8,25"/>
					<path fill="#151515" d="M26.8,25L26,25.6c0,0,0-0.1-0.1-0.1L26.8,25C26.8,25,26.8,25,26.8,25"/>
					<path fill="#141414" d="M26.8,24.9l-0.8,0.6c0,0,0-0.1,0-0.1L26.8,24.9C26.8,24.9,26.8,24.9,26.8,24.9"/>
				</g>
			</g>
			<g enable-background="new    ">
				<defs>
					<path id="SVGID_87_" enable-background="new    " d="M30.3,24.9l0.9,0.5c-0.2,0.4-0.6,0.6-1,0.6v-1C30.2,25,30.3,25,30.3,24.9z
						"/>
				</defs>
				<clipPath id="SVGID_88_">
					<use xlink:href="#SVGID_87_"  overflow="visible"/>
				</clipPath>
				<g clip-path="url(#SVGID_88_)" enable-background="new    ">
					<polyline fill="#151515" points="30.3,24.9 31.2,25.4 31.2,25.4 30.3,24.9 30.3,24.9 					"/>
					<path fill="#161616" d="M30.3,24.9l0.9,0.5c0,0,0,0.1-0.1,0.1L30.3,24.9C30.3,24.9,30.3,24.9,30.3,24.9"/>
					<path fill="#161616" d="M30.3,24.9l0.8,0.6c0,0-0.1,0.1-0.1,0.1L30.3,24.9C30.3,25,30.3,24.9,30.3,24.9"/>
					<path fill="#171717" d="M30.3,25l0.7,0.7c0,0-0.1,0.1-0.1,0.1L30.3,25C30.3,25,30.3,25,30.3,25"/>
					<path fill="#171717" d="M30.3,25l0.6,0.8c0,0-0.1,0.1-0.1,0.1L30.3,25C30.3,25,30.3,25,30.3,25"/>
					<path fill="#181818" d="M30.3,25l0.5,0.9c-0.1,0-0.2,0.1-0.2,0.1L30.3,25C30.2,25,30.3,25,30.3,25"/>
					<path fill="#191919" d="M30.2,25l0.3,1c-0.1,0-0.2,0.1-0.4,0.1L30.2,25C30.2,25,30.2,25,30.2,25"/>
				</g>
			</g>
			<g>
				<polygon fill="#161616" points="26.8,24.9 25.9,25.4 24.3,22.6 25.1,22.1 				"/>
			</g>
			<g>
				<polygon fill="#171717" points="32,22.1 32.8,22.6 31.2,25.4 30.3,24.9 				"/>
			</g>
			<g enable-background="new    ">
				<defs>
					<path id="SVGID_89_" enable-background="new    " d="M25.1,22.1l-0.9,0.5c-0.2-0.4-0.2-0.8,0-1.1l0.9,0.5
						C25.1,22,25.1,22,25.1,22.1z"/>
				</defs>
				<clipPath id="SVGID_90_">
					<use xlink:href="#SVGID_89_"  overflow="visible"/>
				</clipPath>
				<g clip-path="url(#SVGID_90_)" enable-background="new    ">
					<path fill="#141414" d="M25.1,22.1l-0.9,0.5c0,0,0,0,0-0.1L25.1,22.1C25.1,22.1,25.1,22.1,25.1,22.1"/>
					<path fill="#141414" d="M25.1,22.1l-0.9,0.5c0,0,0-0.1-0.1-0.1L25.1,22.1C25.1,22.1,25.1,22.1,25.1,22.1"/>
					<path fill="#131313" d="M25.1,22.1l-0.9,0.4c0,0,0-0.1,0-0.1L25.1,22.1C25.1,22,25.1,22,25.1,22.1"/>
					<path fill="#131313" d="M25.1,22l-1,0.2c0,0,0-0.1,0-0.1L25.1,22C25.1,22,25.1,22,25.1,22"/>
					<path fill="#121212" d="M25.1,22l-1,0.1c0,0,0-0.1,0-0.2L25.1,22C25.1,22,25.1,22,25.1,22"/>
					<path fill="#111111" d="M25.1,22l-1,0c0-0.1,0-0.1,0-0.2L25.1,22C25.1,22,25.1,22,25.1,22"/>
					<path fill="#111111" d="M25.1,22l-1-0.2c0-0.1,0-0.1,0.1-0.2L25.1,22C25.1,22,25.1,22,25.1,22"/>
					<path fill="#101010" d="M25.1,22l-0.9-0.3c0-0.1,0.1-0.1,0.1-0.2L25.1,22C25.1,21.9,25.1,22,25.1,22"/>
				</g>
			</g>
			<g enable-background="new    ">
				<defs>
					<path id="SVGID_91_" enable-background="new    " d="M32,21.9l0.9-0.5c0.2,0.4,0.2,0.8,0,1.1L32,22.1C32,22,32,22,32,21.9z"/>
				</defs>
				<clipPath id="SVGID_92_">
					<use xlink:href="#SVGID_91_"  overflow="visible"/>
				</clipPath>
				<g clip-path="url(#SVGID_92_)" enable-background="new    ">
					<path fill="#101010" d="M32,21.9l0.9-0.5c0,0,0,0,0,0L32,21.9C32,21.9,32,21.9,32,21.9"/>
					<path fill="#111111" d="M32,21.9l0.9-0.5c0,0.1,0.1,0.1,0.1,0.2L32,21.9C32,21.9,32,21.9,32,21.9"/>
					<path fill="#111111" d="M32,22l1-0.3c0,0.1,0,0.1,0,0.2L32,22C32,22,32,22,32,22"/>
					<path fill="#121212" d="M32,22l1-0.2c0,0,0,0.1,0,0.2L32,22C32,22,32,22,32,22"/>
					<path fill="#131313" d="M32,22l1,0c0,0,0,0.1,0,0.1L32,22C32,22,32,22,32,22"/>
					<path fill="#131313" d="M32,22l1,0.1c0,0,0,0.1,0,0.1L32,22C32,22,32,22,32,22"/>
					<path fill="#141414" d="M32,22l1,0.2c0,0,0,0.1,0,0.1L32,22C32,22,32,22,32,22"/>
					<path fill="#141414" d="M32,22l1,0.3c0,0,0,0.1,0,0.1L32,22C32,22,32,22,32,22"/>
					<path fill="#151515" d="M32,22.1l0.9,0.4c0,0,0,0.1-0.1,0.1L32,22.1C32,22.1,32,22.1,32,22.1"/>
					<polyline fill="#161616" points="32,22.1 32.8,22.6 32.8,22.6 32,22.1 32,22.1 					"/>
				</g>
			</g>
			<g>
				<polygon fill="#111111" points="25.1,21.9 24.3,21.4 25.9,18.6 26.8,19.1 				"/>
			</g>
			<g>
				
					<rect x="31.1" y="18.6" transform="matrix(0.8669 -0.4985 0.4985 0.8669 -5.893 18.4324)" fill="#121212" width="1" height="3.3"/>
			</g>
			<g enable-background="new    ">
				<defs>
					<path id="SVGID_93_" enable-background="new    " d="M30.2,19v-1c0.4,0,0.8,0.2,1,0.6l-0.9,0.5C30.3,19,30.2,19,30.2,19z"/>
				</defs>
				<clipPath id="SVGID_94_">
					<use xlink:href="#SVGID_93_"  overflow="visible"/>
				</clipPath>
				<g clip-path="url(#SVGID_94_)" enable-background="new    ">
					<path fill="#101010" d="M30.2,19v-1c0.3,0,0.6,0.1,0.8,0.3L30.3,19C30.3,19,30.2,19,30.2,19"/>
					<path fill="#101010" d="M30.3,19l0.7-0.7c0.1,0.1,0.1,0.2,0.2,0.2L30.3,19C30.3,19.1,30.3,19.1,30.3,19"/>
				</g>
			</g>
			<g>
				<path fill="#1C1C1C" d="M30.2,19c0.1,0,0.1,0,0.1,0.1l1.6,2.9c0,0,0,0.1,0,0.1l-1.6,2.9c0,0-0.1,0.1-0.1,0.1h-3.3
					c-0.1,0-0.1,0-0.1-0.1l-1.7-2.9c0,0,0-0.1,0-0.1l1.7-2.9c0,0,0.1-0.1,0.1-0.1H30.2z"/>
			</g>
			<g enable-background="new    ">
				<defs>
					<path id="SVGID_95_" enable-background="new    " d="M26.8,19.1l-0.9-0.5c0.2-0.4,0.6-0.6,1-0.6v1C26.8,19,26.8,19,26.8,19.1z"
						/>
				</defs>
				<clipPath id="SVGID_96_">
					<use xlink:href="#SVGID_95_"  overflow="visible"/>
				</clipPath>
				<g clip-path="url(#SVGID_96_)" enable-background="new    ">
					<path fill="#101010" d="M26.8,19.1l-0.9-0.5c0,0,0-0.1,0.1-0.1L26.8,19.1C26.8,19.1,26.8,19.1,26.8,19.1"/>
					<path fill="#101010" d="M26.8,19.1L26,18.5c0.2-0.3,0.6-0.5,0.9-0.5v1C26.8,19,26.8,19,26.8,19.1"/>
				</g>
			</g>
			<g>
				<rect x="26.9" y="18" fill="#101010" width="3.3" height="1"/>
			</g>
		</g>
	</g>
</g>
<g>
	<g>
		<g enable-background="new    ">
			<g>
				<rect x="40.9" y="25" fill="#1B1B1B" width="3.3" height="1"/>
			</g>
			<g enable-background="new    ">
				<defs>
					<path id="SVGID_97_" enable-background="new    " d="M40.9,25v1c-0.4,0-0.8-0.2-1-0.6l0.9-0.5C40.8,25,40.8,25,40.9,25z"/>
				</defs>
				<clipPath id="SVGID_98_">
					<use xlink:href="#SVGID_97_"  overflow="visible"/>
				</clipPath>
				<g clip-path="url(#SVGID_98_)" enable-background="new    ">
					<path fill="#191919" d="M40.9,25v1c-0.1,0-0.1,0-0.2,0L40.9,25C40.9,25,40.9,25,40.9,25"/>
					<path fill="#181818" d="M40.9,25l-0.1,1c-0.1,0-0.2,0-0.3-0.1L40.9,25C40.8,25,40.9,25,40.9,25"/>
					<path fill="#171717" d="M40.8,25l-0.4,0.9c-0.1,0-0.1,0-0.2-0.1L40.8,25C40.8,25,40.8,25,40.8,25"/>
					<path fill="#171717" d="M40.8,25l-0.5,0.9c0,0-0.1-0.1-0.1-0.1L40.8,25C40.8,25,40.8,25,40.8,25"/>
					<path fill="#161616" d="M40.8,25l-0.6,0.8c0,0-0.1-0.1-0.1-0.1L40.8,25C40.8,25,40.8,25,40.8,25"/>
					<path fill="#161616" d="M40.8,25l-0.7,0.7c0,0-0.1-0.1-0.1-0.1L40.8,25C40.8,25,40.8,25,40.8,25"/>
					<path fill="#151515" d="M40.8,24.9L40,25.6c0,0-0.1-0.1-0.1-0.1L40.8,24.9C40.8,24.9,40.8,24.9,40.8,24.9"/>
					<path fill="#141414" d="M40.8,24.9l-0.8,0.6c0,0,0,0,0-0.1L40.8,24.9C40.8,24.9,40.8,24.9,40.8,24.9"/>
				</g>
			</g>
			<g enable-background="new    ">
				<defs>
					<path id="SVGID_99_" enable-background="new    " d="M44.3,24.9l0.9,0.5c-0.2,0.4-0.6,0.6-1,0.6v-1C44.2,25,44.3,25,44.3,24.9z
						"/>
				</defs>
				<clipPath id="SVGID_100_">
					<use xlink:href="#SVGID_99_"  overflow="visible"/>
				</clipPath>
				<g clip-path="url(#SVGID_100_)" enable-background="new    ">
					<polyline fill="#151515" points="44.3,24.9 45.2,25.4 45.2,25.4 44.3,24.9 44.3,24.9 					"/>
					<path fill="#161616" d="M44.3,24.9l0.9,0.5c0,0,0,0.1-0.1,0.1L44.3,24.9C44.3,24.9,44.3,24.9,44.3,24.9"/>
					<path fill="#161616" d="M44.3,24.9l0.8,0.6c0,0-0.1,0.1-0.1,0.1L44.3,24.9C44.3,25,44.3,24.9,44.3,24.9"/>
					<path fill="#171717" d="M44.3,25l0.7,0.7c0,0-0.1,0.1-0.1,0.1L44.3,25C44.3,25,44.3,25,44.3,25"/>
					<path fill="#171717" d="M44.3,25l0.6,0.8c0,0-0.1,0.1-0.1,0.1L44.3,25C44.3,25,44.3,25,44.3,25"/>
					<path fill="#181818" d="M44.3,25l0.5,0.9c-0.1,0-0.2,0.1-0.2,0.1L44.3,25C44.2,25,44.3,25,44.3,25"/>
					<path fill="#191919" d="M44.2,25l0.3,1c-0.1,0-0.2,0.1-0.3,0.1L44.2,25C44.2,25,44.2,25,44.2,25"/>
				</g>
			</g>
			<g>
				<rect x="39" y="22.1" transform="matrix(0.8669 -0.4985 0.4985 0.8669 -6.58 22.8538)" fill="#161616" width="1" height="3.3"/>
			</g>
			<g>
				<polygon fill="#171717" points="46,22.1 46.8,22.6 45.2,25.4 44.3,24.9 				"/>
			</g>
			<g enable-background="new    ">
				<defs>
					<path id="SVGID_101_" enable-background="new    " d="M46,21.9l0.9-0.5c0.2,0.4,0.2,0.8,0,1.1L46,22.1C46,22,46,22,46,21.9z"/>
				</defs>
				<clipPath id="SVGID_102_">
					<use xlink:href="#SVGID_101_"  overflow="visible"/>
				</clipPath>
				<g clip-path="url(#SVGID_102_)" enable-background="new    ">
					<path fill="#101010" d="M46,21.9l0.9-0.5c0,0,0,0,0,0L46,21.9C46,21.9,46,21.9,46,21.9"/>
					<path fill="#111111" d="M46,21.9l0.9-0.5c0,0.1,0.1,0.1,0.1,0.2L46,21.9C46,21.9,46,21.9,46,21.9"/>
					<path fill="#111111" d="M46,22l1-0.3c0,0.1,0,0.1,0,0.2L46,22C46,22,46,22,46,22"/>
					<path fill="#121212" d="M46,22l1-0.2c0,0,0,0.1,0,0.2L46,22C46,22,46,22,46,22"/>
					<path fill="#131313" d="M46,22l1,0c0,0,0,0.1,0,0.1L46,22C46,22,46,22,46,22"/>
					<path fill="#131313" d="M46,22l1,0.1c0,0,0,0.1,0,0.1L46,22C46,22,46,22,46,22"/>
					<path fill="#141414" d="M46,22l1,0.2c0,0,0,0.1,0,0.1L46,22C46,22,46,22,46,22"/>
					<path fill="#141414" d="M46,22l1,0.3c0,0,0,0.1,0,0.1L46,22C46,22,46,22,46,22"/>
					<path fill="#151515" d="M46,22.1l0.9,0.4c0,0,0,0.1-0.1,0.1L46,22.1C46,22.1,46,22.1,46,22.1"/>
					<polyline fill="#161616" points="46,22.1 46.8,22.6 46.8,22.6 46,22.1 46,22.1 					"/>
				</g>
			</g>
			<g enable-background="new    ">
				<defs>
					<path id="SVGID_103_" enable-background="new    " d="M39.1,22.1l-0.9,0.5c-0.2-0.4-0.2-0.8,0-1.1l0.9,0.5
						C39.1,22,39.1,22,39.1,22.1z"/>
				</defs>
				<clipPath id="SVGID_104_">
					<use xlink:href="#SVGID_103_"  overflow="visible"/>
				</clipPath>
				<g clip-path="url(#SVGID_104_)" enable-background="new    ">
					<path fill="#141414" d="M39.1,22.1l-0.9,0.5c0,0,0,0,0,0L39.1,22.1C39.1,22.1,39.1,22.1,39.1,22.1"/>
					<path fill="#141414" d="M39.1,22.1l-0.9,0.5c0,0,0-0.1,0-0.1L39.1,22.1C39.1,22.1,39.1,22.1,39.1,22.1"/>
					<path fill="#131313" d="M39.1,22.1l-0.9,0.4c0,0,0-0.1,0-0.1L39.1,22.1C39.1,22,39.1,22.1,39.1,22.1"/>
					<path fill="#131313" d="M39.1,22l-1,0.3c0,0,0-0.1,0-0.1L39.1,22C39.1,22,39.1,22,39.1,22"/>
					<path fill="#121212" d="M39.1,22l-1,0.1c0-0.1,0-0.1,0-0.2L39.1,22C39.1,22,39.1,22,39.1,22"/>
					<path fill="#111111" d="M39.1,22l-1,0c0-0.1,0-0.1,0-0.2L39.1,22C39.1,22,39.1,22,39.1,22"/>
					<path fill="#111111" d="M39.1,22l-1-0.2c0-0.1,0-0.1,0.1-0.2L39.1,22C39.1,22,39.1,22,39.1,22"/>
					<path fill="#101010" d="M39.1,21.9l-0.9-0.3c0-0.1,0-0.1,0.1-0.2L39.1,21.9C39.1,21.9,39.1,21.9,39.1,21.9"/>
				</g>
			</g>
			<g>
				<polygon fill="#111111" points="39.1,21.9 38.3,21.4 39.9,18.6 40.8,19.1 				"/>
			</g>
			<g>
				
					<rect x="45.1" y="18.6" transform="matrix(0.8669 -0.4985 0.4985 0.8669 -4.03 25.4109)" fill="#121212" width="1" height="3.3"/>
			</g>
			<g enable-background="new    ">
				<defs>
					<path id="SVGID_105_" enable-background="new    " d="M40.8,19.1l-0.9-0.5c0.2-0.4,0.6-0.6,1-0.6v1C40.8,19,40.8,19,40.8,19.1z
						"/>
				</defs>
				<clipPath id="SVGID_106_">
					<use xlink:href="#SVGID_105_"  overflow="visible"/>
				</clipPath>
				<g clip-path="url(#SVGID_106_)" enable-background="new    ">
					<path fill="#101010" d="M40.8,19.1l-0.9-0.5c0,0,0-0.1,0.1-0.1L40.8,19.1C40.8,19.1,40.8,19.1,40.8,19.1"/>
					<path fill="#101010" d="M40.8,19.1L40,18.5c0.2-0.3,0.6-0.5,0.9-0.5v1C40.8,19,40.8,19,40.8,19.1"/>
				</g>
			</g>
			<g>
				<rect x="40.9" y="18" fill="#101010" width="3.3" height="1"/>
			</g>
			<g>
				<path fill="#1C1C1C" d="M44.2,19c0,0,0.1,0,0.1,0.1l1.6,2.9c0,0,0,0.1,0,0.1l-1.7,2.9c0,0-0.1,0.1-0.1,0.1h-3.3
					c-0.1,0-0.1,0-0.1-0.1l-1.6-2.9c0,0,0-0.1,0-0.2l1.6-2.8c0,0,0.1-0.1,0.1-0.1H44.2z"/>
			</g>
			<g enable-background="new    ">
				<defs>
					<path id="SVGID_107_" enable-background="new    " d="M44.2,19v-1c0.4,0,0.8,0.2,1,0.6l-0.9,0.5C44.3,19,44.2,19,44.2,19z"/>
				</defs>
				<clipPath id="SVGID_108_">
					<use xlink:href="#SVGID_107_"  overflow="visible"/>
				</clipPath>
				<g clip-path="url(#SVGID_108_)" enable-background="new    ">
					<path fill="#101010" d="M44.2,19v-1c0.3,0,0.6,0.1,0.8,0.3L44.2,19C44.3,19,44.2,19,44.2,19"/>
					<path fill="#101010" d="M44.3,19l0.7-0.7c0.1,0.1,0.1,0.2,0.2,0.2L44.3,19C44.3,19.1,44.3,19.1,44.3,19"/>
				</g>
			</g>
		</g>
	</g>
</g>
<g>
	<g>
		<g enable-background="new    ">
			<g>
				<rect x="12.9" y="25" fill="#1B1B1B" width="3.3" height="1"/>
			</g>
			<g enable-background="new    ">
				<defs>
					<path id="SVGID_109_" enable-background="new    " d="M12.9,25v1c-0.4,0-0.8-0.2-1-0.6l0.9-0.5C12.8,25,12.8,25,12.9,25z"/>
				</defs>
				<clipPath id="SVGID_110_">
					<use xlink:href="#SVGID_109_"  overflow="visible"/>
				</clipPath>
				<g clip-path="url(#SVGID_110_)" enable-background="new    ">
					<path fill="#191919" d="M12.9,25v1c-0.1,0-0.1,0-0.2,0L12.9,25C12.9,25,12.9,25,12.9,25"/>
					<path fill="#181818" d="M12.9,25l-0.1,1c-0.1,0-0.2,0-0.3-0.1L12.9,25C12.9,25,12.9,25,12.9,25"/>
					<path fill="#171717" d="M12.8,25l-0.4,0.9c-0.1,0-0.1,0-0.2-0.1L12.8,25C12.8,25,12.8,25,12.8,25"/>
					<path fill="#171717" d="M12.8,25l-0.5,0.9c0,0-0.1-0.1-0.1-0.1L12.8,25C12.8,25,12.8,25,12.8,25"/>
					<path fill="#161616" d="M12.8,25l-0.6,0.8c0,0-0.1-0.1-0.1-0.1L12.8,25C12.8,25,12.8,25,12.8,25"/>
					<path fill="#161616" d="M12.8,25l-0.7,0.7c0,0-0.1-0.1-0.1-0.1L12.8,25C12.8,25,12.8,25,12.8,25"/>
					<path fill="#151515" d="M12.8,24.9L12,25.6c0,0-0.1-0.1-0.1-0.1L12.8,24.9C12.8,24.9,12.8,24.9,12.8,24.9"/>
					<path fill="#141414" d="M12.8,24.9l-0.8,0.6c0,0,0,0,0-0.1L12.8,24.9C12.8,24.9,12.8,24.9,12.8,24.9"/>
				</g>
			</g>
			<g enable-background="new    ">
				<defs>
					<path id="SVGID_111_" enable-background="new    " d="M16.3,24.9l0.9,0.5c-0.2,0.4-0.6,0.6-1,0.6v-1C16.2,25,16.3,25,16.3,24.9
						z"/>
				</defs>
				<clipPath id="SVGID_112_">
					<use xlink:href="#SVGID_111_"  overflow="visible"/>
				</clipPath>
				<g clip-path="url(#SVGID_112_)" enable-background="new    ">
					<polyline fill="#151515" points="16.3,24.9 17.2,25.4 17.2,25.4 16.3,24.9 16.3,24.9 					"/>
					<path fill="#161616" d="M16.3,24.9l0.9,0.5c0,0,0,0.1-0.1,0.1L16.3,24.9C16.3,24.9,16.3,24.9,16.3,24.9"/>
					<path fill="#161616" d="M16.3,24.9l0.8,0.6c0,0-0.1,0.1-0.1,0.1L16.3,24.9C16.3,25,16.3,24.9,16.3,24.9"/>
					<path fill="#171717" d="M16.3,25l0.7,0.7c0,0-0.1,0.1-0.1,0.1L16.3,25C16.3,25,16.3,25,16.3,25"/>
					<path fill="#171717" d="M16.3,25l0.6,0.8c0,0-0.1,0.1-0.1,0.1L16.3,25C16.3,25,16.3,25,16.3,25"/>
					<path fill="#181818" d="M16.3,25l0.5,0.9c-0.1,0-0.2,0.1-0.2,0.1L16.3,25C16.2,25,16.3,25,16.3,25"/>
					<path fill="#191919" d="M16.2,25l0.3,1c-0.1,0-0.2,0.1-0.3,0.1L16.2,25C16.2,25,16.2,25,16.2,25"/>
				</g>
			</g>
			<g>
				
					<rect x="11" y="22.1" transform="matrix(0.8669 -0.4985 0.4985 0.8669 -10.3065 8.8971)" fill="#161616" width="1" height="3.3"/>
			</g>
			<g>
				<polygon fill="#171717" points="18,22.1 18.8,22.6 17.2,25.4 16.3,24.9 				"/>
			</g>
			<g enable-background="new    ">
				<defs>
					<path id="SVGID_113_" enable-background="new    " d="M11.1,22.1l-0.9,0.5c-0.2-0.4-0.2-0.8,0-1.1l0.9,0.5
						C11.1,22,11.1,22,11.1,22.1z"/>
				</defs>
				<clipPath id="SVGID_114_">
					<use xlink:href="#SVGID_113_"  overflow="visible"/>
				</clipPath>
				<g clip-path="url(#SVGID_114_)" enable-background="new    ">
					<path fill="#141414" d="M11.1,22.1l-0.9,0.5c0,0,0,0,0-0.1L11.1,22.1C11.1,22.1,11.1,22.1,11.1,22.1"/>
					<path fill="#141414" d="M11.1,22.1l-0.9,0.5c0,0,0-0.1-0.1-0.1L11.1,22.1C11.1,22.1,11.1,22.1,11.1,22.1"/>
					<path fill="#131313" d="M11.1,22.1l-0.9,0.4c0,0,0-0.1,0-0.1L11.1,22.1C11.1,22,11.1,22,11.1,22.1"/>
					<path fill="#131313" d="M11.1,22l-1,0.2c0,0,0-0.1,0-0.1L11.1,22C11.1,22,11.1,22,11.1,22"/>
					<path fill="#121212" d="M11.1,22l-1,0.1c0,0,0-0.1,0-0.2L11.1,22C11.1,22,11.1,22,11.1,22"/>
					<path fill="#111111" d="M11.1,22l-1,0c0-0.1,0-0.1,0-0.2L11.1,22C11.1,22,11.1,22,11.1,22"/>
					<path fill="#111111" d="M11.1,22l-1-0.2c0-0.1,0-0.1,0.1-0.2L11.1,22C11.1,22,11.1,22,11.1,22"/>
					<path fill="#101010" d="M11.1,22l-0.9-0.3c0-0.1,0.1-0.1,0.1-0.2L11.1,22C11.1,21.9,11.1,22,11.1,22"/>
				</g>
			</g>
			<g enable-background="new    ">
				<defs>
					<path id="SVGID_115_" enable-background="new    " d="M18,21.9l0.9-0.5c0.2,0.4,0.2,0.8,0,1.1L18,22.1C18,22,18,22,18,21.9z"/>
				</defs>
				<clipPath id="SVGID_116_">
					<use xlink:href="#SVGID_115_"  overflow="visible"/>
				</clipPath>
				<g clip-path="url(#SVGID_116_)" enable-background="new    ">
					<path fill="#101010" d="M18,21.9l0.9-0.5c0,0,0,0,0,0L18,21.9C18,21.9,18,21.9,18,21.9"/>
					<path fill="#111111" d="M18,21.9l0.9-0.5c0,0.1,0.1,0.1,0.1,0.2L18,21.9C18,21.9,18,21.9,18,21.9"/>
					<path fill="#111111" d="M18,22l1-0.3c0,0.1,0,0.1,0,0.2L18,22C18,22,18,22,18,22"/>
					<path fill="#121212" d="M18,22l1-0.2c0,0,0,0.1,0,0.2L18,22C18,22,18,22,18,22"/>
					<path fill="#131313" d="M18,22l1,0c0,0,0,0.1,0,0.1L18,22C18,22,18,22,18,22"/>
					<path fill="#131313" d="M18,22l1,0.1c0,0,0,0.1,0,0.1L18,22C18,22,18,22,18,22"/>
					<path fill="#141414" d="M18,22l1,0.2c0,0,0,0.1,0,0.1L18,22C18,22,18,22,18,22"/>
					<path fill="#141414" d="M18,22l1,0.3c0,0,0,0.1,0,0.1L18,22C18,22,18,22,18,22"/>
					<path fill="#151515" d="M18,22.1l0.9,0.4c0,0,0,0.1-0.1,0.1L18,22.1C18,22.1,18,22.1,18,22.1"/>
					<polyline fill="#161616" points="18,22.1 18.8,22.6 18.8,22.6 18,22.1 18,22.1 					"/>
				</g>
			</g>
			<g>
				<polygon fill="#111111" points="11.1,21.9 10.3,21.4 11.9,18.6 12.8,19.1 				"/>
			</g>
			<g>
				
					<rect x="17.1" y="18.6" transform="matrix(0.8669 -0.4985 0.4985 0.8669 -7.7565 11.4542)" fill="#121212" width="1" height="3.3"/>
			</g>
			<g enable-background="new    ">
				<defs>
					<path id="SVGID_117_" enable-background="new    " d="M12.8,19.1l-0.9-0.5c0.2-0.4,0.6-0.6,1-0.6v1C12.8,19,12.8,19,12.8,19.1z
						"/>
				</defs>
				<clipPath id="SVGID_118_">
					<use xlink:href="#SVGID_117_"  overflow="visible"/>
				</clipPath>
				<g clip-path="url(#SVGID_118_)" enable-background="new    ">
					<path fill="#101010" d="M12.8,19.1l-0.9-0.5c0,0,0-0.1,0.1-0.1L12.8,19.1C12.8,19.1,12.8,19.1,12.8,19.1"/>
					<path fill="#101010" d="M12.8,19.1L12,18.5c0.2-0.3,0.6-0.5,0.9-0.5v1C12.8,19,12.8,19,12.8,19.1"/>
				</g>
			</g>
			<g>
				<rect x="12.9" y="18" fill="#101010" width="3.3" height="1"/>
			</g>
			<g>
				<path fill="#1C1C1C" d="M16.2,19c0,0,0.1,0,0.1,0.1l1.6,2.9c0,0,0,0.1,0,0.1l-1.7,2.9c0,0-0.1,0.1-0.1,0.1h-3.3
					c-0.1,0-0.1,0-0.1-0.1l-1.6-2.9c0,0,0-0.1,0-0.1l1.7-2.9c0,0,0.1-0.1,0.1-0.1H16.2z"/>
			</g>
			<g enable-background="new    ">
				<defs>
					<path id="SVGID_119_" enable-background="new    " d="M16.2,19v-1c0.4,0,0.8,0.2,1,0.6l-0.9,0.5C16.3,19,16.2,19,16.2,19z"/>
				</defs>
				<clipPath id="SVGID_120_">
					<use xlink:href="#SVGID_119_"  overflow="visible"/>
				</clipPath>
				<g clip-path="url(#SVGID_120_)" enable-background="new    ">
					<path fill="#101010" d="M16.2,19v-1c0.3,0,0.6,0.1,0.8,0.3L16.2,19C16.3,19,16.2,19,16.2,19"/>
					<path fill="#101010" d="M16.3,19l0.7-0.7c0.1,0.1,0.1,0.2,0.2,0.2L16.3,19C16.3,19.1,16.3,19.1,16.3,19"/>
				</g>
			</g>
		</g>
	</g>
</g>
<g>
	<g>
		<g enable-background="new    ">
			<g>
				<rect x="-1.1" y="25" fill="#1B1B1B" width="3.3" height="1"/>
			</g>
			<g enable-background="new    ">
				<defs>
					<path id="SVGID_121_" enable-background="new    " d="M-1.1,25l0,1c-0.4,0-0.8-0.2-1-0.6l0.9-0.5C-1.2,25-1.2,25-1.1,25z"/>
				</defs>
				<clipPath id="SVGID_122_">
					<use xlink:href="#SVGID_121_"  overflow="visible"/>
				</clipPath>
				<g clip-path="url(#SVGID_122_)" enable-background="new    ">
					<path fill="#191919" d="M-1.1,25l0,1c-0.1,0-0.1,0-0.2,0L-1.1,25C-1.1,25-1.1,25-1.1,25"/>
					<path fill="#181818" d="M-1.1,25l-0.1,1c-0.1,0-0.2,0-0.3-0.1L-1.1,25C-1.2,25-1.1,25-1.1,25"/>
					<path fill="#171717" d="M-1.2,25l-0.4,0.9c-0.1,0-0.1,0-0.2-0.1L-1.2,25C-1.2,25-1.2,25-1.2,25"/>
					<path fill="#171717" d="M-1.2,25l-0.5,0.9c0,0-0.1,0-0.1-0.1L-1.2,25C-1.2,25-1.2,25-1.2,25"/>
					<path fill="#161616" d="M-1.2,25l-0.6,0.8c0,0-0.1-0.1-0.1-0.1L-1.2,25C-1.2,25-1.2,25-1.2,25"/>
					<path fill="#161616" d="M-1.2,25l-0.7,0.7c0,0-0.1-0.1-0.1-0.1L-1.2,25C-1.2,25-1.2,25-1.2,25"/>
					<path fill="#151515" d="M-1.2,25L-2,25.6c0,0,0-0.1-0.1-0.1L-1.2,25C-1.2,25-1.2,25-1.2,25"/>
					<path fill="#141414" d="M-1.2,25L-2,25.5c0,0,0-0.1,0-0.1L-1.2,25C-1.2,24.9-1.2,24.9-1.2,25"/>
				</g>
			</g>
			<g enable-background="new    ">
				<defs>
					<path id="SVGID_123_" enable-background="new    " d="M2.3,24.9l0.9,0.5C3,25.8,2.6,26,2.2,26l0-1C2.2,25,2.3,25,2.3,24.9z"/>
				</defs>
				<clipPath id="SVGID_124_">
					<use xlink:href="#SVGID_123_"  overflow="visible"/>
				</clipPath>
				<g clip-path="url(#SVGID_124_)" enable-background="new    ">
					<path fill="#151515" d="M2.3,24.9l0.9,0.5c0,0,0,0,0,0L2.3,24.9C2.3,24.9,2.3,24.9,2.3,24.9"/>
					<path fill="#161616" d="M2.3,24.9l0.9,0.5c0,0,0,0.1-0.1,0.1L2.3,24.9C2.3,24.9,2.3,24.9,2.3,24.9"/>
					<path fill="#161616" d="M2.3,24.9l0.8,0.6c0,0-0.1,0.1-0.1,0.1L2.3,24.9C2.3,25,2.3,24.9,2.3,24.9"/>
					<path fill="#171717" d="M2.3,25L3,25.7c0,0-0.1,0.1-0.1,0.1L2.3,25C2.3,25,2.3,25,2.3,25"/>
					<path fill="#171717" d="M2.3,25l0.6,0.8c0,0-0.1,0.1-0.1,0.1L2.3,25C2.3,25,2.3,25,2.3,25"/>
					<path fill="#181818" d="M2.3,25l0.5,0.9c-0.1,0-0.1,0.1-0.2,0.1L2.3,25C2.2,25,2.3,25,2.3,25"/>
					<path fill="#191919" d="M2.2,25l0.3,1C2.4,26,2.3,26,2.2,26L2.2,25C2.2,25,2.2,25,2.2,25"/>
				</g>
			</g>
			<g>
				<polygon fill="#161616" points="-1.2,24.9 -2.1,25.4 -3.7,22.6 -2.9,22.1 				"/>
			</g>
			<g>
				<polygon fill="#171717" points="4,22.1 4.8,22.6 3.2,25.4 2.3,24.9 				"/>
			</g>
			<g enable-background="new    ">
				<defs>
					<path id="SVGID_125_" enable-background="new    " d="M-2.9,22.1l-0.9,0.5c-0.2-0.4-0.2-0.8,0-1.1l0.9,0.5
						C-2.9,22-2.9,22-2.9,22.1z"/>
				</defs>
				<clipPath id="SVGID_126_">
					<use xlink:href="#SVGID_125_"  overflow="visible"/>
				</clipPath>
				<g clip-path="url(#SVGID_126_)" enable-background="new    ">
					<path fill="#141414" d="M-2.9,22.1l-0.9,0.5c0,0,0,0,0-0.1L-2.9,22.1C-2.9,22.1-2.9,22.1-2.9,22.1"/>
					<path fill="#141414" d="M-2.9,22.1l-0.9,0.5c0,0,0-0.1-0.1-0.1L-2.9,22.1C-2.9,22.1-2.9,22.1-2.9,22.1"/>
					<path fill="#131313" d="M-2.9,22.1l-0.9,0.4c0,0,0-0.1,0-0.1L-2.9,22.1C-2.9,22-2.9,22-2.9,22.1"/>
					<path fill="#131313" d="M-2.9,22l-1,0.2c0,0,0-0.1,0-0.1L-2.9,22C-2.9,22-2.9,22-2.9,22"/>
					<path fill="#121212" d="M-2.9,22l-1,0.1c0,0,0-0.1,0-0.2L-2.9,22C-2.9,22-2.9,22-2.9,22"/>
					<path fill="#111111" d="M-2.9,22l-1,0c0-0.1,0-0.1,0-0.2L-2.9,22C-2.9,22-2.9,22-2.9,22"/>
					<path fill="#111111" d="M-2.9,22l-1-0.2c0-0.1,0-0.1,0.1-0.2L-2.9,22C-2.9,22-2.9,22-2.9,22"/>
					<path fill="#101010" d="M-2.9,22l-0.9-0.3c0-0.1,0.1-0.1,0.1-0.2L-2.9,22C-2.9,21.9-2.9,22-2.9,22"/>
				</g>
			</g>
			<g enable-background="new    ">
				<defs>
					<path id="SVGID_127_" enable-background="new    " d="M4,21.9l0.9-0.5c0.2,0.4,0.2,0.8,0,1.1L4,22.1C4,22,4,22,4,21.9z"/>
				</defs>
				<clipPath id="SVGID_128_">
					<use xlink:href="#SVGID_127_"  overflow="visible"/>
				</clipPath>
				<g clip-path="url(#SVGID_128_)" enable-background="new    ">
					<path fill="#101010" d="M4,21.9l0.9-0.5c0,0,0,0,0,0L4,21.9C4,21.9,4,21.9,4,21.9"/>
					<path fill="#111111" d="M4,21.9l0.9-0.5c0,0.1,0.1,0.1,0.1,0.2L4,21.9C4,21.9,4,21.9,4,21.9"/>
					<path fill="#111111" d="M4,22l1-0.3c0,0.1,0,0.1,0,0.2L4,22C4,22,4,22,4,22"/>
					<path fill="#121212" d="M4,22l1-0.2c0,0,0,0.1,0,0.2L4,22C4,22,4,22,4,22"/>
					<path fill="#131313" d="M4,22l1,0c0,0,0,0.1,0,0.1L4,22C4,22,4,22,4,22"/>
					<path fill="#131313" d="M4,22l1,0.1c0,0,0,0.1,0,0.1L4,22C4,22,4,22,4,22"/>
					<path fill="#141414" d="M4,22l1,0.2c0,0,0,0.1,0,0.1L4,22C4,22,4,22,4,22"/>
					<path fill="#141414" d="M4,22l1,0.3c0,0,0,0.1,0,0.1L4,22C4,22,4,22,4,22"/>
					<path fill="#151515" d="M4,22.1l0.9,0.4c0,0,0,0.1-0.1,0.1L4,22.1C4,22.1,4,22.1,4,22.1"/>
					<polyline fill="#161616" points="4,22.1 4.8,22.6 4.8,22.6 4,22.1 4,22.1 					"/>
				</g>
			</g>
			<g>
				<polygon fill="#111111" points="-2.9,21.9 -3.7,21.4 -2.1,18.6 -1.2,19.1 				"/>
			</g>
			<g>
				<polygon fill="#121212" points="2.3,19.1 3.2,18.6 4.8,21.4 4,21.9 				"/>
			</g>
			<g enable-background="new    ">
				<defs>
					<path id="SVGID_129_" enable-background="new    " d="M2.2,19v-1c0.4,0,0.8,0.2,1,0.6l-0.9,0.5C2.3,19,2.2,19,2.2,19z"/>
				</defs>
				<clipPath id="SVGID_130_">
					<use xlink:href="#SVGID_129_"  overflow="visible"/>
				</clipPath>
				<g clip-path="url(#SVGID_130_)" enable-background="new    ">
					<path fill="#101010" d="M2.2,19v-1c0.3,0,0.6,0.1,0.8,0.3L2.2,19C2.3,19,2.2,19,2.2,19"/>
					<path fill="#101010" d="M2.3,19L3,18.3c0.1,0.1,0.1,0.2,0.2,0.2L2.3,19C2.3,19,2.3,19,2.3,19"/>
					<polyline fill="#111111" points="2.3,19.1 3.2,18.6 3.2,18.6 2.3,19.1 2.3,19.1 					"/>
				</g>
			</g>
			<g>
				<path fill="#1C1C1C" d="M2.2,19c0.1,0,0.1,0,0.1,0.1L4,21.9c0,0,0,0.1,0,0.1l-1.7,2.9C2.3,25,2.2,25,2.2,25h-3.3
					c-0.1,0-0.1,0-0.1-0.1l-1.7-2.9c0,0,0-0.1,0-0.1l1.7-2.9c0-0.1,0.1-0.1,0.1-0.1H2.2z"/>
			</g>
			<g enable-background="new    ">
				<defs>
					<path id="SVGID_131_" enable-background="new    " d="M-1.2,19.1l-0.9-0.5c0.2-0.4,0.6-0.6,1-0.6v1C-1.2,19-1.2,19-1.2,19.1z"
						/>
				</defs>
				<clipPath id="SVGID_132_">
					<use xlink:href="#SVGID_131_"  overflow="visible"/>
				</clipPath>
				<g clip-path="url(#SVGID_132_)" enable-background="new    ">
					<path fill="#101010" d="M-1.2,19.1l-0.9-0.5c0,0,0-0.1,0.1-0.1L-1.2,19.1C-1.2,19.1-1.2,19.1-1.2,19.1"/>
					<path fill="#101010" d="M-1.2,19.1L-2,18.5c0.2-0.3,0.5-0.5,0.9-0.5v1C-1.2,19-1.2,19-1.2,19.1"/>
				</g>
			</g>
			<g>
				<rect x="-1.1" y="18" fill="#101010" width="3.3" height="1"/>
			</g>
		</g>
	</g>
</g>
<g>
	<polygon fill="#070707" points="5.6,13.5 4.1,11 5.6,8.5 8.4,8.5 9.9,11 8.4,13.5 	"/>
	<path d="M8.2,9l1.2,2l-1.2,2H5.8l-1.2-2l1.2-2H8.2 M8.7,8H5.3l-1.7,3l1.7,3h3.5l1.7-3L8.7,8L8.7,8z"/>
</g>
<g>
	<polygon fill="#0C0C0C" points="19.4,13 18.2,11 19.4,9 21.7,9 22.8,11 21.7,13 	"/>
	<path d="M21.1,10l0.6,1l-0.6,1H20l-0.6-1l0.6-1H21.1 M22.3,8h-3.5l-1.7,3l1.7,3h3.5l1.7-3L22.3,8L22.3,8z"/>
</g>
<g>
	<polygon fill="#0A0A0A" points="33.1,13.5 31.7,11 33.1,8.5 36,8.5 37.4,11 36,13.5 	"/>
	<path d="M35.7,9l1.2,2l-1.2,2h-2.3l-1.2-2l1.2-2H35.7 M36.3,8h-3.5l-1.7,3l1.7,3h3.5l1.7-3L36.3,8L36.3,8z"/>
</g>
<g>
	<polygon fill="#0D0D0D" points="27.4,2 26.2,0 27.4,-2 29.7,-2 30.8,0 29.7,2 	"/>
	<path d="M29.1-1l0.6,1l-0.6,1H28l-0.6-1L28-1H29.1 M30.3-3h-3.5l-1.7,3l1.7,3h3.5L32,0L30.3-3L30.3-3z"/>
</g>
<g>
	<polygon fill="#0C0C0C" points="-1.9,2.5 -3.3,0 -1.9,-2.5 1,-2.5 2.4,0 1,2.5 	"/>
	<path d="M0.7-2l1.2,2L0.7,2h-2.3l-1.2-2l1.2-2H0.7 M1.3-3h-3.5l-1.7,3l1.7,3h3.5L3,0L1.3-3L1.3-3z"/>
</g>
<g>
	<polygon fill="#0C0C0C" points="41.1,24.5 39.7,22 41.1,19.5 44,19.5 45.4,22 44,24.5 	"/>
	<path d="M43.7,20l1.2,2l-1.2,2h-2.3l-1.2-2l1.2-2H43.7 M44.3,19h-3.5l-1.7,3l1.7,3h3.5l1.7-3L44.3,19L44.3,19z"/>
</g>
<g>
	<polygon fill="#090909" points="12.1,2.5 10.7,0 12.1,-2.5 15,-2.5 16.4,0 15,2.5 	"/>
	<path d="M14.7-2l1.2,2l-1.2,2h-2.3l-1.2-2l1.2-2H14.7 M15.3-3h-3.5l-1.7,3l1.7,3h3.5L17,0L15.3-3L15.3-3z"/>
</g>
<g>
	<polygon fill="#090909" points="27.1,24.5 25.7,22 27.1,19.5 30,19.5 31.4,22 30,24.5 	"/>
	<path d="M29.7,20l1.2,2l-1.2,2h-2.3l-1.2-2l1.2-2H29.7 M30.3,19h-3.5l-1.7,3l1.7,3h3.5l1.7-3L30.3,19L30.3,19z"/>
</g>
<g>
	<polygon fill="#0F0F0F" points="13.4,24 12.2,22 13.4,20 15.7,20 16.8,22 15.7,24 	"/>
	<path d="M15.1,21l0.6,1l-0.6,1H14l-0.6-1l0.6-1H15.1 M16.3,19h-3.5l-1.7,3l1.7,3h3.5l1.7-3L16.3,19L16.3,19z"/>
</g>
<g>
	<polygon fill="#0A0A0A" points="-0.6,24 -1.8,22 -0.6,20 1.7,20 2.8,22 1.7,24 	"/>
	<path d="M1.1,21l0.6,1l-0.6,1H0l-0.6-1L0,21H1.1 M2.3,19h-3.5l-1.7,3l1.7,3h3.5L4,22L2.3,19L2.3,19z"/>
</g>
<g>
	<polygon fill="#0A0A0A" points="41.4,2 40.2,0 41.4,-2 43.7,-2 44.8,0 43.7,2 	"/>
	<path d="M43.1-1l0.6,1l-0.6,1H42l-0.6-1L42-1H43.1 M44.3-3h-3.5l-1.7,3l1.7,3h3.5L46,0L44.3-3L44.3-3z"/>
</g>
</svg>
