<?xml version="1.0" encoding="utf-8"?>
<!-- Generator: Adobe Illustrator 24.1.1, SVG Export Plug-In . SVG Version: 6.00 Build 0)  -->
<svg version="1.1" id="Layer_1" xmlns="http://www.w3.org/2000/svg" xmlns:xlink="http://www.w3.org/1999/xlink" x="0px" y="0px"
	 viewBox="0 0 245 245" style="enable-background:new 0 0 245 245;" xml:space="preserve">
<style type="text/css">
	.st0{fill:#FFFFFF;}
</style>
<desc>https://www.youtube.com/playlist?list=PLn5eRy9EIxkX6BCy4-2Qa_p3i_cQY9oDW</desc>
<rect class="st0" width="245" height="245"/>
<g id="elements">
	<path d="M70,7h7v7h-7V7z M119,7h7v7h-7V7z M147,7h7v7h-7V7z M161,7h7v7h-7V7z M168,7h7v7h-7V7z M189,7h7v7h-7V7z M196,7h7v7h-7V7z
		 M203,7h7v7h-7V7z M210,7h7v7h-7V7z M217,7h7v7h-7V7z M224,14V7 M63,14h7v7h-7V14z M70,14h7v7h-7V14z M84,14h7v7h-7V14z M91,14h7v7
		h-7V14z M112,14h7v7h-7V14z M119,14h7v7h-7V14z M126,14h7v7h-7V14z M133,14h7v7h-7V14z M147,14h7v7h-7V14z M154,14h7v7h-7V14z
		 M189,14h7v7h-7V14z M238,21h-7 M70,21h7v7h-7V21z M77,21h7v7h-7V21z M84,21h7v7h-7V21z M105,21h7v7h-7V21z M112,21h7v7h-7V21z
		 M133,21h7v7h-7V21z M147,21h7v7h-7V21z M154,21h7v7h-7V21z M161,21h7v7h-7V21z M175,21h7v7h-7V21z M189,21h7v7h-7V21z M203,21h7v7
		h-7V21z M210,21h7v7h-7V21z M217,21h7v7h-7V21z M231,21h7v7h-7V21z M63,28h7v7h-7V28z M70,28h7v7h-7V28z M84,28h7v7h-7V28z M105,28
		h7v7h-7V28z M112,28h7v7h-7V28z M119,28h7v7h-7V28z M126,28h7v7h-7V28z M161,28h7v7h-7V28z M175,28h7v7h-7V28z M189,28h7v7h-7V28z
		 M203,28h7v7h-7V28z M210,28h7v7h-7V28z M217,28h7v7h-7V28z M231,28h7v7h-7V28z M77,35h7v7h-7V35z M91,35h7v7h-7V35z M98,35h7v7h-7
		V35z M105,35h7v7h-7V35z M112,35h7v7h-7V35z M119,35h7v7h-7V35z M126,35h7v7h-7V35z M140,35h7v7h-7V35z M147,35h7v7h-7V35z M168,35
		h7v7h-7V35z M189,35h7v7h-7V35z M203,35h7v7h-7V35z M210,35h7v7h-7V35z M217,35h7v7h-7V35z M231,35h7v7h-7V35z M63,42h7v7h-7V42z
		 M77,42h7v7h-7V42z M98,42h7v7h-7V42z M105,42h7v7h-7V42z M112,42h7v7h-7V42z M133,42h7v7h-7V42z M147,42h7v7h-7V42z M154,42h7v7
		h-7V42z M161,42h7v7h-7V42z M175,42h7v7h-7V42z M189,42h7v7h-7V42z M231,42h7v7h-7V42z M21,7v7 M21,7h7v7h-7V7z M28,7h7v7h-7V7z
		 M35,7h7v7h-7V7z M42,7h7v7h-7V7z M49,7h7v7h-7V7z M14,21H7 M49,14h7v7h-7V14z M7,21h7v7H7V21z M21,21h7v7h-7V21z M28,21h7v7h-7V21
		z M35,21h7v7h-7V21z M49,21h7v7h-7V21z M7,28h7v7H7V28z M21,28h7v7h-7V28z M28,28h7v7h-7V28z M35,28h7v7h-7V28z M49,28h7v7h-7V28z
		 M7,35h7v7H7V35z M21,35h7v7h-7V35z M28,35h7v7h-7V35z M35,35h7v7h-7V35z M49,35h7v7h-7V35z M7,42h7v7H7V42z M49,42h7v7h-7V42z
		 M7,49h7v7H7V49z M14,49h7v7h-7V49z M21,49h7v7h-7V49z M28,49h7v7h-7V49z M35,49h7v7h-7V49z M42,49h7v7h-7V49z M49,49h7v7h-7V49z
		 M63,49h7v7h-7V49z M77,49h7v7h-7V49z M91,49h7v7h-7V49z M105,49h7v7h-7V49z M119,49h7v7h-7V49z M133,49h7v7h-7V49z M147,49h7v7h-7
		V49z M161,49h7v7h-7V49z M175,49h7v7h-7V49z M189,49h7v7h-7V49z M196,49h7v7h-7V49z M203,49h7v7h-7V49z M210,49h7v7h-7V49z M217,49
		h7v7h-7V49z M224,49h7v7h-7V49z M231,49h7v7h-7V49z M91,56h7v7h-7V56z M105,56h7v7h-7V56z M147,56h7v7h-7V56z M154,56h7v7h-7V56z
		 M7,63h7v7H7V63z M14,63h7v7h-7V63z M21,63h7v7h-7V63z M28,63h7v7h-7V63z M35,63h7v7h-7V63z M49,63h7v7h-7V63z M56,63h7v7h-7V63z
		 M63,63h7v7h-7V63z M70,63h7v7h-7V63z M77,63h7v7h-7V63z M91,63h7v7h-7V63z M98,63h7v7h-7V63z M105,63h7v7h-7V63z M112,63h7v7h-7
		V63z M119,63h7v7h-7V63z M126,63h7v7h-7V63z M133,63h7v7h-7V63z M147,63h7v7h-7V63z M161,63h7v7h-7V63z M168,63h7v7h-7V63z M175,63
		h7v7h-7V63z M182,63h7v7h-7V63z M196,63h7v7h-7V63z M210,63h7v7h-7V63z M224,63h7v7h-7V63z M7,70h7v7H7V70z M14,70h7v7h-7V70z
		 M21,70h7v7h-7V70z M28,70h7v7h-7V70z M35,70h7v7h-7V70z M42,70h7v7h-7V70z M63,70h7v7h-7V70z M70,70h7v7h-7V70z M105,70h7v7h-7V70
		z M126,70h7v7h-7V70z M140,70h7v7h-7V70z M168,70h7v7h-7V70z M182,70h7v7h-7V70z M189,70h7v7h-7V70z M217,70h7v7h-7V70z M224,70h7
		v7h-7V70z M231,70h7v7h-7V70z M28,77h7v7h-7V77z M35,77h7v7h-7V77z M49,77h7v7h-7V77z M70,77h7v7h-7V77z M84,77h7v7h-7V77z M91,77
		h7v7h-7V77z M112,77h7v7h-7V77z M119,77h7v7h-7V77z M133,77h7v7h-7V77z M154,77h7v7h-7V77z M175,77h7v7h-7V77z M182,77h7v7h-7V77z
		 M210,77h7v7h-7V77z M224,77h7v7h-7V77z M7,84h7v7H7V84z M21,84h7v7h-7V84z M28,84h7v7h-7V84z M42,84h7v7h-7V84z M63,84h7v7h-7V84z
		 M70,84h7v7h-7V84z M77,84h7v7h-7V84z M84,84h7v7h-7V84z M112,84h7v7h-7V84z M119,84h7v7h-7V84z M140,84h7v7h-7V84z M147,84h7v7h-7
		V84z M154,84h7v7h-7V84z M161,84h7v7h-7V84z M175,84h7v7h-7V84z M217,84h7v7h-7V84z M35,91h7v7h-7V91z M42,91h7v7h-7V91z M49,91h7
		v7h-7V91z M70,91h7v7h-7V91z M84,91h7v7h-7V91z M91,91h7v7h-7V91z M98,91h7v7h-7V91z M140,91h7v7h-7V91z M161,91h7v7h-7V91z
		 M182,91h7v7h-7V91z M203,91h7v7h-7V91z M210,91h7v7h-7V91z M28,98h7v7h-7V98z M56,98h7v7h-7V98z M70,98h7v7h-7V98z M77,98h7v7h-7
		V98z M91,98h7v7h-7V98z M105,98h7v7h-7V98z M133,98h7v7h-7V98z M140,98h7v7h-7V98z M147,98h7v7h-7V98z M154,98h7v7h-7V98z M161,98
		h7v7h-7V98z M168,98h7v7h-7V98z M182,98h7v7h-7V98z M189,98h7v7h-7V98z M224,98h7v7h-7V98z M231,98h7v7h-7V98z M14,105h7v7h-7V105z
		 M28,105h7v7h-7V105z M49,105h7v7h-7V105z M56,105h7v7h-7V105z M70,105h7v7h-7V105z M77,105h7v7h-7V105z M98,105h7v7h-7V105z
		 M112,105h7v7h-7V105z M182,105h7v7h-7V105z M203,105h7v7h-7V105z M224,105h7v7h-7V105z M7,112h7v7H7V112z M21,112h7v7h-7V112z
		 M56,112h7v7h-7V112z M70,112h7v7h-7V112z M84,112h7v7h-7V112z M105,112h7v7h-7V112z M112,112h7v7h-7V112z M119,112h7v7h-7V112z
		 M147,112h7v7h-7V112z M154,112h7v7h-7V112z M161,112h7v7h-7V112z M168,112h7v7h-7V112z M182,112h7v7h-7V112z M203,112h7v7h-7V112z
		 M217,112h7v7h-7V112z M7,119h7v7H7V119z M21,119h7v7h-7V119z M28,119h7v7h-7V119z M35,119h7v7h-7V119z M42,119h7v7h-7V119z
		 M49,119h7v7h-7V119z M56,119h7v7h-7V119z M70,119h7v7h-7V119z M98,119h7v7h-7V119z M105,119h7v7h-7V119z M112,119h7v7h-7V119z
		 M119,119h7v7h-7V119z M140,119h7v7h-7V119z M161,119h7v7h-7V119z M168,119h7v7h-7V119z M175,119h7v7h-7V119z M182,119h7v7h-7V119z
		 M196,119h7v7h-7V119z M203,119h7v7h-7V119z M224,119h7v7h-7V119z M7,126h7v7H7V126z M14,126h7v7h-7V126z M21,126h7v7h-7V126z
		 M35,126h7v7h-7V126z M70,126h7v7h-7V126z M77,126h7v7h-7V126z M98,126h7v7h-7V126z M126,126h7v7h-7V126z M133,126h7v7h-7V126z
		 M147,126h7v7h-7V126z M154,126h7v7h-7V126z M161,126h7v7h-7V126z M168,126h7v7h-7V126z M175,126h7v7h-7V126z M189,126h7v7h-7V126z
		 M210,126h7v7h-7V126z M224,126h7v7h-7V126z M231,126h7v7h-7V126z M14,133h7v7h-7V133z M28,133h7v7h-7V133z M49,133h7v7h-7V133z
		 M63,133h7v7h-7V133z M70,133h7v7h-7V133z M77,133h7v7h-7V133z M91,133h7v7h-7V133z M112,133h7v7h-7V133z M119,133h7v7h-7V133z
		 M133,133h7v7h-7V133z M154,133h7v7h-7V133z M161,133h7v7h-7V133z M210,133h7v7h-7V133z M224,133h7v7h-7V133z M7,140h7v7H7V140z
		 M14,140h7v7h-7V140z M21,140h7v7h-7V140z M28,140h7v7h-7V140z M42,140h7v7h-7V140z M56,140h7v7h-7V140z M63,140h7v7h-7V140z
		 M105,140h7v7h-7V140z M112,140h7v7h-7V140z M154,140h7v7h-7V140z M189,140h7v7h-7V140z M196,140h7v7h-7V140z M203,140h7v7h-7V140z
		 M217,140h7v7h-7V140z M14,147h7v7h-7V147z M42,147h7v7h-7V147z M49,147h7v7h-7V147z M56,147h7v7h-7V147z M70,147h7v7h-7V147z
		 M77,147h7v7h-7V147z M91,147h7v7h-7V147z M105,147h7v7h-7V147z M119,147h7v7h-7V147z M126,147h7v7h-7V147z M147,147h7v7h-7V147z
		 M168,147h7v7h-7V147z M175,147h7v7h-7V147z M182,147h7v7h-7V147z M203,147h7v7h-7V147z M224,147h7v7h-7V147z M7,154h7v7H7V154z
		 M14,154h7v7h-7V154z M28,154h7v7h-7V154z M56,154h7v7h-7V154z M63,154h7v7h-7V154z M70,154h7v7h-7V154z M77,154h7v7h-7V154z
		 M98,154h7v7h-7V154z M105,154h7v7h-7V154z M119,154h7v7h-7V154z M126,154h7v7h-7V154z M147,154h7v7h-7V154z M161,154h7v7h-7V154z
		 M168,154h7v7h-7V154z M189,154h7v7h-7V154z M210,154h7v7h-7V154z M224,154h7v7h-7V154z M231,154h7v7h-7V154z M7,161h7v7H7V161z
		 M35,161h7v7h-7V161z M42,161h7v7h-7V161z M49,161h7v7h-7V161z M56,161h7v7h-7V161z M70,161h7v7h-7V161z M98,161h7v7h-7V161z
		 M105,161h7v7h-7V161z M112,161h7v7h-7V161z M119,161h7v7h-7V161z M133,161h7v7h-7V161z M147,161h7v7h-7V161z M161,161h7v7h-7V161z
		 M182,161h7v7h-7V161z M196,161h7v7h-7V161z M203,161h7v7h-7V161z M210,161h7v7h-7V161z M224,161h7v7h-7V161z M7,168h7v7H7V168z
		 M21,168h7v7h-7V168z M35,168h7v7h-7V168z M42,168h7v7h-7V168z M56,168h7v7h-7V168z M84,168h7v7h-7V168z M105,168h7v7h-7V168z
		 M133,168h7v7h-7V168z M147,168h7v7h-7V168z M154,168h7v7h-7V168z M161,168h7v7h-7V168z M168,168h7v7h-7V168z M182,168h7v7h-7V168z
		 M203,168h7v7h-7V168z M210,168h7v7h-7V168z M217,168h7v7h-7V168z M7,175h7v7H7V175z M35,175h7v7h-7V175z M42,175h7v7h-7V175z
		 M49,175h7v7h-7V175z M63,175h7v7h-7V175z M70,175h7v7h-7V175z M77,175h7v7h-7V175z M84,175h7v7h-7V175z M91,175h7v7h-7V175z
		 M98,175h7v7h-7V175z M105,175h7v7h-7V175z M112,175h7v7h-7V175z M126,175h7v7h-7V175z M140,175h7v7h-7V175z M147,175h7v7h-7V175z
		 M161,175h7v7h-7V175z M168,175h7v7h-7V175z M175,175h7v7h-7V175z M182,175h7v7h-7V175z M189,175h7v7h-7V175z M196,175h7v7h-7V175z
		 M203,175h7v7h-7V175z M210,175h7v7h-7V175z M231,175h7v7h-7V175z M63,182h7v7h-7V182z M84,182h7v7h-7V182z M112,182h7v7h-7V182z
		 M119,182h7v7h-7V182z M126,182h7v7h-7V182z M133,182h7v7h-7V182z M140,182h7v7h-7V182z M175,182h7v7h-7V182z M203,182h7v7h-7V182z
		 M210,182h7v7h-7V182z M217,182h7v7h-7V182z M231,182h7v7h-7V182z M7,189h7v7H7V189z M14,189h7v7h-7V189z M21,189h7v7h-7V189z
		 M28,189h7v7h-7V189z M35,189h7v7h-7V189z M42,189h7v7h-7V189z M49,189h7v7h-7V189z M63,189h7v7h-7V189z M70,189h7v7h-7V189z
		 M98,189h7v7h-7V189z M112,189h7v7h-7V189z M126,189h7v7h-7V189z M133,189h7v7h-7V189z M154,189h7v7h-7V189z M161,189h7v7h-7V189z
		 M168,189h7v7h-7V189z M175,189h7v7h-7V189z M189,189h7v7h-7V189z M203,189h7v7h-7V189z M210,189h7v7h-7V189z M224,189h7v7h-7V189z
		 M7,196h7v7H7V196z M49,196h7v7h-7V196z M70,196h7v7h-7V196z M91,196h7v7h-7V196z M105,196h7v7h-7V196z M147,196h7v7h-7V196z
		 M154,196h7v7h-7V196z M168,196h7v7h-7V196z M175,196h7v7h-7V196z M203,196h7v7h-7V196z M210,196h7v7h-7V196z M217,196h7v7h-7V196z
		 M7,203h7v7H7V203z M21,203h7v7h-7V203z M28,203h7v7h-7V203z M35,203h7v7h-7V203z M49,203h7v7h-7V203z M63,203h7v7h-7V203z M70,203
		h7v7h-7V203z M84,203h7v7h-7V203z M105,203h7v7h-7V203z M112,203h7v7h-7V203z M147,203h7v7h-7V203z M161,203h7v7h-7V203z M175,203
		h7v7h-7V203z M182,203h7v7h-7V203z M189,203h7v7h-7V203z M196,203h7v7h-7V203z M203,203h7v7h-7V203z M210,203h7v7h-7V203z M231,203
		h7v7h-7V203z M7,210h7v7H7V210z M21,210h7v7h-7V210z M28,210h7v7h-7V210z M35,210h7v7h-7V210z M49,210h7v7h-7V210z M63,210h7v7h-7
		V210z M70,210h7v7h-7V210z M77,210h7v7h-7V210z M84,210h7v7h-7V210z M91,210h7v7h-7V210z M105,210h7v7h-7V210z M112,210h7v7h-7V210
		z M119,210h7v7h-7V210z M126,210h7v7h-7V210z M140,210h7v7h-7V210z M147,210h7v7h-7V210z M168,210h7v7h-7V210z M196,210h7v7h-7V210
		z M203,210h7v7h-7V210z M210,210h7v7h-7V210z M217,210h7v7h-7V210z M7,217h7v7H7V217z M21,217h7v7h-7V217z M28,217h7v7h-7V217z
		 M35,217h7v7h-7V217z M49,217h7v7h-7V217z M63,217h7v7h-7V217z M112,217h7v7h-7V217z M133,217h7v7h-7V217z M147,217h7v7h-7V217z
		 M154,217h7v7h-7V217z M175,217h7v7h-7V217z M189,217h7v7h-7V217z M196,217h7v7h-7V217z M210,217h7v7h-7V217z M224,217h7v7h-7V217z
		 M7,224h7 M49,224h7v7h-7V224z M63,224h7v7h-7V224z M70,224h7v7h-7V224z M91,224h7v7h-7V224z M105,224h7v7h-7V224z M119,224h7v7h-7
		V224z M133,224h7v7h-7V224z M140,224h7v7h-7V224z M154,224h7v7h-7V224z M161,224h7v7h-7V224z M182,224h7v7h-7V224z M189,224h7v7h-7
		V224z M203,224h7v7h-7V224z M210,224h7v7h-7V224z M217,224h7v7h-7V224z M21,231v7 M21,231h7v7h-7V231z M28,231h7v7h-7V231z M35,231
		h7v7h-7V231z M42,231h7v7h-7V231z M49,231h7v7h-7V231z M63,231h7v7h-7V231z M70,231h7v7h-7V231z M84,231h7v7h-7V231z M105,231h7v7
		h-7V231z M112,231h7v7h-7V231z M119,231h7v7h-7V231z M126,231h7v7h-7V231z M133,231h7v7h-7V231z M147,231h7v7h-7V231z M161,231h7v7
		h-7V231z M168,231h7v7h-7V231z M175,231h7v7h-7V231z M189,231h7v7h-7V231z M210,231h7v7h-7V231z M224,231h7v7h-7V231z"/>
	<path d="M45.6,7H17.4C11.7,7,7,11.7,7,17.4v28.1C7,51.3,11.7,56,17.4,56h28.1C51.3,56,56,51.3,56,45.6V17.4C56,11.7,51.3,7,45.6,7z
		 M49,49H14V14h35V49z"/>
	<path d="M227.6,7h-28.1c-5.8,0-10.4,4.7-10.4,10.4v28.1c0,5.8,4.7,10.4,10.4,10.4h28.1c5.8,0,10.4-4.7,10.4-10.4V17.4
		C238,11.7,233.3,7,227.6,7z M231,49h-35V14h35V49z"/>
	<path d="M45.6,189H17.4C11.7,189,7,193.7,7,199.4v28.1c0,5.8,4.7,10.4,10.4,10.4h28.1c5.8,0,10.4-4.7,10.4-10.4v-28.1
		C56,193.7,51.3,189,45.6,189z M49,231H14v-35h35V231z"/>
</g>
</svg>
