
<svg version="1.1" id="Layer_1" xmlns="http://www.w3.org/2000/svg" xmlns:xlink="http://www.w3.org/1999/xlink" x="0px" y="0px"
	 viewBox="0 0 20 20" xml:space="preserve">

<radialGradient id="SVGID_1_" cx="9.2246" cy="10.5423" r="11.4411" fx="19.9577" fy="6.5801" gradientTransform="matrix(-0.337 -0.9415 1.1357 -0.4064 0.3603 23.5122)" gradientUnits="userSpaceOnUse">
	<stop  offset="0" style="stop-color:#A1A3A6"/>
	<stop  offset="0.6971" style="stop-color:#1C1B1C"/>
</radialGradient>
<circle class="st0" cx="10" cy="10" r="10"/>
<radialGradient id="XMLID_2_" cx="131.9151" cy="-156.2908" r="8.7185" fx="140.094" fy="-159.3101" gradientTransform="matrix(0.6566 0.7543 0.9098 -0.7919 66.2426 -213.555)" gradientUnits="userSpaceOnUse">
	<stop  offset="0" style="stop-color:#848689"/>
	<stop  offset="0.6971" style="stop-color:#1C1B1C"/>
</radialGradient>
<path id="XMLID_1144_" class="st1" d="M3.8,8.4L5.5,10c0.6,0.5,0.7,1.3,0.5,2l-0.8,2.2c-0.7,1.9,1.7,3.5,3.2,2l1.6-1.7
	c0.5-0.6,1.3-0.7,2-0.5l2.2,0.8c1.9,0.7,3.5-1.7,2-3.2L14.5,10c-0.6-0.5-0.7-1.3-0.5-2l0.8-2.2c0.7-1.9-1.7-3.5-3.2-2L10,5.5
	C9.5,6.1,8.7,6.3,8,6L5.8,5.2C3.9,4.5,2.3,6.9,3.8,8.4z"/>
</svg>
